<svg width="24" height="24" viewBox="0 0 24 24" fill="none" xmlns="http://www.w3.org/2000/svg">
<path fill-rule="evenodd" clip-rule="evenodd" d="M7.32478 18.8556L7.00403 15.2239C7.00403 15.2239 5.9045 14.2111 5.6195 12.8627C5.33451 11.5143 5.12641 8.39839 5.12641 8.39839C5.12641 8.39839 5.37015 8.2222 5.7568 8.35431C5.96972 8.42706 6.1517 8.60658 6.30274 8.89287C6.31366 8.91357 6.52266 10.0619 6.63995 10.6772C6.68103 10.8927 6.76486 8.8794 6.76486 8.8794L6.96859 5.58349C6.98586 5.30402 7.04402 5.00371 7.27486 4.84523C7.35535 4.78996 7.45223 4.74738 7.56421 4.73955C7.92919 4.71403 8.23904 5.07265 8.23904 5.07265L8.22441 4.86349C8.19725 4.47515 8.49005 4.13833 8.87839 4.11117C9.26673 4.08402 9.60356 4.37681 9.63071 4.76515L9.64534 4.97431C9.64534 4.97431 9.84712 4.57992 10.254 4.55146C10.7442 4.51718 10.9015 5.14359 10.9358 5.63379L10.97 6.12307C10.97 6.12307 11.1969 5.8281 11.4874 5.80778C11.8975 5.77911 12.0645 6.28663 12.0347 6.69667C11.9567 7.77055 11.8088 9.87387 11.7869 10.6804C11.9481 12.2864 11.7235 13.6382 10.9386 14.9488C10.988 16.298 11.1547 18.0393 11.1547 18.0393L7.32478 18.8556Z" fill="#FFC909"/>
<path fill-rule="evenodd" clip-rule="evenodd" d="M10.9386 14.9488L7.15215 16.3097L7.10265 16.3408L7.32476 18.8557L11.1547 18.0393C11.0436 16.8785 10.9715 15.8483 10.9386 14.9488L10.9386 14.9488Z" fill="url(#paint0_linear)"/>
<path fill-rule="evenodd" clip-rule="evenodd" d="M11.0196 6.77814C11.0998 6.78028 10.9413 8.50272 10.8608 10.5203C10.8608 10.6547 11.2982 11.4129 11.15 12.2138C11.0018 13.0148 9.78513 13.5585 8.73406 13.5218C8.7559 12.8963 8.70891 12.1049 8.34179 11.5461C7.97468 10.9873 7.33877 10.6915 6.63995 10.6773L6.76707 8.88571C6.78565 9.06451 7.04878 9.28442 7.55644 9.54544C7.66507 9.6013 7.80602 9.64348 7.96914 9.67887C7.96914 9.67887 8.18382 5.39662 8.30956 5.39993C8.43545 5.40329 8.20746 9.70765 8.20746 9.70765C8.5113 9.75294 9.06416 9.84609 9.39559 9.91309C9.39559 9.91309 9.65278 5.42693 9.77886 5.4303C9.90365 5.43363 9.64368 9.95865 9.64368 9.95865C9.96771 10.0557 10.2759 10.0903 10.611 10.4294C10.611 10.4294 10.894 6.77506 11.0196 6.77814Z" fill="url(#paint1_linear)"/>
<path d="M6.24816 17.1922C6.21297 16.79 6.5105 16.4354 6.91271 16.4002L11.0844 16.0352C11.4866 16 11.8412 16.2976 11.8764 16.6998L12.0373 18.5386C12.0725 18.9408 11.7749 19.2954 11.3727 19.3306L7.20101 19.6956C6.79881 19.7308 6.44423 19.4333 6.40904 19.031L6.24816 17.1922Z" fill="#18B860"/>
<path d="M9.94482 16.1349L11.0844 16.0352C11.4866 16.0001 11.8412 16.2976 11.8764 16.6998L12.0373 18.5386C12.0725 18.9409 11.7749 19.2954 11.3727 19.3306L10.2331 19.4303L9.94482 16.1349Z" fill="#12964D"/>
<path fill-rule="evenodd" clip-rule="evenodd" d="M11.387 16.0724C11.651 16.1638 11.8504 16.4034 11.8764 16.6998L12.0373 18.5386C12.0724 18.9408 11.7749 19.2954 11.3727 19.3306L10.4801 19.4087C10.3205 18.0457 10.6228 16.9336 11.387 16.0724V16.0724Z" fill="url(#paint2_linear)"/>
<path fill-rule="evenodd" clip-rule="evenodd" d="M17.1794 18.8269L17.4367 15.1902C17.4367 15.1902 18.5184 14.1583 18.7798 12.8051C19.0412 11.452 19.1949 8.33291 19.1949 8.33291C19.1949 8.33291 18.9482 8.161 18.5639 8.29983C18.3523 8.37629 18.1734 8.55896 18.0274 8.84784C18.0169 8.86873 17.8279 10.0205 17.7214 10.6378C17.6841 10.854 17.5651 8.84243 17.5651 8.84243L17.3039 5.55058C17.2818 5.27146 17.2184 4.97221 16.9848 4.81778C16.9034 4.76393 16.8058 4.72305 16.6936 4.71717C16.3283 4.69802 16.0247 5.06199 16.0247 5.06199L16.0357 4.85262C16.0561 4.46386 15.7575 4.1322 15.3687 4.11182C14.98 4.09145 14.6483 4.39008 14.6279 4.77884L14.6169 4.98821C14.6169 4.98821 14.4083 4.5974 14.0009 4.57605C13.5102 4.55034 13.3639 5.17939 13.3382 5.67011L13.3126 6.15992C13.3126 6.15992 13.0805 5.86895 12.7898 5.85371C12.3792 5.83219 12.2211 6.34255 12.258 6.75201C12.3548 7.82437 12.5393 9.92479 12.5753 10.7308C12.4422 12.3393 12.6903 13.687 13.498 14.9837C13.4721 16.3336 13.3358 18.0775 13.3358 18.0775L17.1794 18.8269Z" fill="#FFC909"/>
<path fill-rule="evenodd" clip-rule="evenodd" d="M13.498 14.9837L17.3076 16.2784L17.3576 16.3085L17.1794 18.8269L13.3358 18.0775C13.4267 16.9149 13.4807 15.8837 13.498 14.9837L13.498 14.9837Z" fill="url(#paint3_linear)"/>
<path fill-rule="evenodd" clip-rule="evenodd" d="M13.2744 6.81575C13.1942 6.81929 13.3827 8.53871 13.4985 10.5546C13.5008 10.6889 13.0767 11.4546 13.2388 12.2529C13.401 13.0511 14.627 13.5735 15.6772 13.5185C15.6445 12.8935 15.6777 12.1014 16.035 11.5362C16.3923 10.9711 17.0229 10.6642 17.7214 10.6379L17.563 8.84879C17.5476 9.02789 17.2883 9.25235 16.7853 9.52219C16.6777 9.57993 16.5375 9.62458 16.375 9.66281C16.375 9.66281 16.0856 5.38495 15.9599 5.39046C15.8341 5.39601 16.1372 9.69573 16.1372 9.69573C15.8342 9.74632 15.283 9.84911 14.9528 9.92188C14.9528 9.92188 14.6174 5.4409 14.4914 5.44646C14.3667 5.45197 14.7056 9.97177 14.7056 9.97177C14.3833 10.0745 14.0757 10.1144 13.7466 10.4593C13.7466 10.4593 13.3999 6.81048 13.2744 6.81575Z" fill="url(#paint4_linear)"/>
<path d="M18.2268 17.1449C18.2549 16.7422 17.9513 16.3928 17.5485 16.3647L13.3711 16.0725C12.9683 16.0444 12.619 16.348 12.5908 16.7508L12.4621 18.5922C12.4339 18.995 12.7376 19.3443 13.1403 19.3724L17.3178 19.6646C17.7205 19.6927 18.0699 19.3891 18.098 18.9863L18.2268 17.1449Z" fill="#18B860"/>
<path d="M14.5122 16.1523L13.371 16.0725C12.9683 16.0444 12.6189 16.3481 12.5908 16.7508L12.462 18.5922C12.4339 18.995 12.7375 19.3443 13.1403 19.3725L14.2815 19.4523L14.5122 16.1523Z" fill="#12964D"/>
<defs>
<linearGradient id="paint0_linear" x1="12.1061" y1="17.3658" x2="6.92733" y2="20.149" gradientUnits="userSpaceOnUse">
<stop stop-color="#FFC909"/>
<stop offset="1" stop-color="#C49B06"/>
</linearGradient>
<linearGradient id="paint1_linear" x1="11.4054" y1="10.7091" x2="6.97248" y2="7.95375" gradientUnits="userSpaceOnUse">
<stop stop-color="#FFC909"/>
<stop offset="1" stop-color="#C49B06"/>
</linearGradient>
<linearGradient id="paint2_linear" x1="10.8838" y1="14.4053" x2="8.859" y2="17.3856" gradientUnits="userSpaceOnUse">
<stop stop-opacity="0.01"/>
<stop offset="1" stop-opacity="0.103857"/>
</linearGradient>
<linearGradient id="paint3_linear" x1="12.3728" y1="17.4207" x2="17.5994" y2="20.1132" gradientUnits="userSpaceOnUse">
<stop stop-color="#FFC909"/>
<stop offset="1" stop-color="#C49B06"/>
</linearGradient>
<linearGradient id="paint4_linear" x1="12.9573" y1="10.7529" x2="17.3414" y2="7.92056" gradientUnits="userSpaceOnUse">
<stop stop-color="#FFC909"/>
<stop offset="1" stop-color="#C49B06"/>
</linearGradient>
</defs>
</svg>
