<svg width="24" height="24" viewBox="0 0 24 24" fill="none" xmlns="http://www.w3.org/2000/svg">
<path fill-rule="evenodd" clip-rule="evenodd" d="M11.8169 4.12628C12.4029 3.57086 13.0689 3.42583 13.8149 3.69118C14.5609 3.95653 14.9789 4.53853 15.0689 5.4372C15.962 5.19525 16.6629 5.27904 17.1715 5.68857C17.6802 6.09809 17.9322 6.78441 17.9276 7.74754C18.9817 8.02794 19.5088 8.6369 19.5088 9.57444C19.5088 10.512 17.7966 12.2144 14.3723 14.6816L11.8169 15.008L9.2615 14.6816C5.83717 12.2144 4.125 10.512 4.125 9.57444C4.125 8.6369 4.65206 8.02794 5.70619 7.74754C5.70156 6.78441 5.95357 6.09809 6.46221 5.68857C6.97085 5.27904 7.67174 5.19525 8.56488 5.4372C8.65483 4.53853 9.07281 3.95653 9.81884 3.69118C10.5649 3.42583 11.2309 3.57086 11.8169 4.12628Z" fill="url(#paint0_linear)"/>
<path opacity="0.5" fill-rule="evenodd" clip-rule="evenodd" d="M15.5333 13.8247C15.171 14.0993 14.784 14.3849 14.3723 14.6816L11.8169 15.008L9.26152 14.6816C8.50957 14.1398 7.84018 13.6349 7.25335 13.1669C7.72447 13.1353 8.06651 12.8876 8.27948 12.4235C8.65853 11.5977 6.11226 8.5568 6.35532 8.3618C6.59838 8.16681 8.49623 10.3791 9.21499 10.3791C9.93375 10.3791 8.63451 6.56672 8.92475 6.36639C9.21499 6.16605 10.1689 9.93062 10.7204 10.3791C11.2719 10.8276 11.4985 5.64789 11.7554 5.64789C12.0123 5.64789 11.8553 9.87722 12.4501 10.6683C13.0448 11.4593 14.3546 6.36639 14.586 6.36639C14.8174 6.36639 13.1503 11.4312 13.4881 11.7344C13.8258 12.0377 16.4124 8.59522 16.7794 8.89794C17.1291 9.18635 13.8721 10.897 15.5333 13.8247Z" fill="url(#paint1_linear)"/>
<path d="M11.7061 19.0939C15.4173 19.0939 18.4257 18.014 18.4257 16.6818C18.4257 15.3496 15.4173 14.2696 11.7061 14.2696C7.99499 14.2696 4.98651 15.3496 4.98651 16.6818C4.98651 18.014 7.99499 19.0939 11.7061 19.0939Z" fill="#18B860"/>
<path opacity="0.2" fill-rule="evenodd" clip-rule="evenodd" d="M9.11416 14.4556C9.91176 14.3358 10.7874 14.2696 11.7061 14.2696C15.4172 14.2696 18.4257 15.3496 18.4257 16.6818C18.4257 17.4805 17.3443 18.1885 15.6784 18.6275C15.4313 18.5055 15.3561 18.3473 15.5634 18.1463C16.5408 17.1987 16.0431 15.2542 14.2123 15.4625C12.3814 15.6708 9.83519 15.5992 8.92471 15.2542C8.46452 15.0797 8.52767 14.8136 9.11416 14.4556Z" fill="#2D2D2F"/>
<path fill-rule="evenodd" clip-rule="evenodd" d="M4.98651 16.6818C6.01266 17.2584 7.16993 17.5613 8.34701 17.5613H15.0335C16.2207 17.5613 17.3882 17.2586 18.4257 16.6818C18.4257 18.2994 17.1144 19.6108 15.4967 19.6108H7.91558C6.2979 19.6108 4.98651 18.2994 4.98651 16.6818Z" fill="#FFC909"/>
<path fill-rule="evenodd" clip-rule="evenodd" d="M15.9899 17.4955C16.8425 17.3776 17.6687 17.1026 18.4258 16.6818C18.4258 18.2994 17.1144 19.6108 15.4967 19.6108H14.4601C15.1844 18.9122 15.6911 18.2102 15.9801 17.5048C15.9833 17.5017 15.9866 17.4986 15.9899 17.4955Z" fill="url(#paint2_linear)"/>
<path d="M11.7553 15.2541C13.3187 15.2541 14.586 13.9868 14.586 12.4235C14.586 10.8602 13.3187 9.5929 11.7553 9.5929C10.192 9.5929 8.92474 10.8602 8.92474 12.4235C8.92474 13.9868 10.192 15.2541 11.7553 15.2541Z" fill="url(#paint3_linear)"/>
<path opacity="0.8" d="M10.7092 11.1928C10.9471 11.1928 11.14 11 11.14 10.7621C11.14 10.5242 10.9471 10.3314 10.7092 10.3314C10.4714 10.3314 10.2785 10.5242 10.2785 10.7621C10.2785 11 10.4714 11.1928 10.7092 11.1928Z" fill="white"/>
<path opacity="0.542597" fill-rule="evenodd" clip-rule="evenodd" d="M10.1312 14.7422C10.2799 13.5985 10.8418 12.8256 11.8169 12.4235C12.7183 12.0518 13.2628 11.2961 13.4503 10.1563C14.1398 10.6726 14.5859 11.496 14.5859 12.4235C14.5859 13.9868 13.3186 15.2541 11.7553 15.2541C11.151 15.2541 10.591 15.0648 10.1312 14.7422Z" fill="url(#paint4_linear)"/>
<defs>
<linearGradient id="paint0_linear" x1="11.8169" y1="12.453" x2="5.99905" y2="-1.06714" gradientUnits="userSpaceOnUse">
<stop stop-color="#77DEA5"/>
<stop offset="1" stop-color="#18B860"/>
</linearGradient>
<linearGradient id="paint1_linear" x1="16.8059" y1="12.5628" x2="7.9462" y2="6.21065" gradientUnits="userSpaceOnUse">
<stop stop-color="#107D41"/>
<stop offset="1" stop-color="#18B860"/>
</linearGradient>
<linearGradient id="paint2_linear" x1="15.8868" y1="18.9453" x2="17.0517" y2="16.577" gradientUnits="userSpaceOnUse">
<stop stop-color="#59595C" stop-opacity="0"/>
<stop offset="1" stop-color="#2D2D2F" stop-opacity="0.435233"/>
</linearGradient>
<linearGradient id="paint3_linear" x1="10.728" y1="9.5929" x2="11.7553" y2="15.2541" gradientUnits="userSpaceOnUse">
<stop stop-color="#FFEEAE"/>
<stop offset="1" stop-color="#FFC909"/>
</linearGradient>
<linearGradient id="paint4_linear" x1="11.7036" y1="10.5706" x2="13.3004" y2="15.4038" gradientUnits="userSpaceOnUse">
<stop stop-color="#FFC909"/>
<stop offset="1" stop-color="#C49B06"/>
</linearGradient>
</defs>
</svg>
