<svg width="24" height="24" viewBox="0 0 24 24" fill="none" xmlns="http://www.w3.org/2000/svg">
<path fill-rule="evenodd" clip-rule="evenodd" d="M13.4045 5.18589L12.2097 4.76666C12.2097 4.55194 12.0357 4.37787 11.8209 4.37787C11.8009 4.37787 11.781 4.37941 11.7612 4.38248L5.65713 5.33144C5.42281 5.36787 5.25 5.56963 5.25 5.80676V16.7516C5.25 17.3257 5.5903 17.8452 6.1166 18.0745L6.46754 18.2275C7.08387 18.496 7.77462 18.541 8.42058 18.3546L13.4045 16.9167V5.18589Z" fill="#FFC909"/>
<path fill-rule="evenodd" clip-rule="evenodd" d="M6.17798 18.101L6.1166 18.0743C5.5903 17.845 5.25 17.3255 5.25 16.7514V5.80653C5.25 5.5694 5.42281 5.36764 5.65713 5.33122L6.17798 5.25024V18.101Z" fill="url(#paint0_linear)"/>
<path fill-rule="evenodd" clip-rule="evenodd" d="M5.25 9.817V7.71021C5.93251 8.1829 6.9949 8.40136 8.11001 8.1466L8.54358 10.0158C7.11368 10.3762 6.07519 10.2214 5.25 9.817H5.25Z" fill="#18B860"/>
<path fill-rule="evenodd" clip-rule="evenodd" d="M5.25 9.81699V7.71021C5.51017 7.89039 5.82553 8.03364 6.17798 8.12781V10.1336C5.83899 10.0643 5.53204 9.95522 5.25 9.81699H5.25Z" fill="url(#paint1_linear)"/>
<path fill-rule="evenodd" clip-rule="evenodd" d="M7.73264 18.4653V5.00854L11.7612 4.38224C11.781 4.37917 11.8009 4.37762 11.8209 4.37762C12.0357 4.37762 12.2097 4.55169 12.2097 4.76642L13.3759 5.18948C13.4 5.185 13.4244 5.18275 13.4488 5.18275C13.6687 5.18275 13.847 5.361 13.847 5.58089V6.44573L13.4044 16.9165L8.42057 18.3544C8.19503 18.4195 7.96403 18.4563 7.73264 18.4653Z" fill="#D6AA0C"/>
<path fill-rule="evenodd" clip-rule="evenodd" d="M13.4044 6.68458V16.9165L8.56052 18.3141C9.51089 16.9266 9.87521 14.3484 9.60355 11.388C9.37688 8.91778 9.77786 7.18875 10.8065 6.20093L13.4044 6.68458Z" fill="url(#paint2_linear)"/>
<path fill-rule="evenodd" clip-rule="evenodd" d="M12.2097 4.76641L13.3947 5.18223L8.23788 6.10311C7.41353 6.23713 6.56803 6.13153 5.80195 5.79889C5.70487 5.75673 5.64206 5.66098 5.64206 5.55514C5.64206 5.44202 5.71275 5.3454 5.81237 5.30706L11.7612 4.38223C11.9734 4.34925 12.1721 4.49451 12.2051 4.70669C12.2082 4.72645 12.2097 4.74641 12.2097 4.76641Z" fill="#FEDE65"/>
<path fill-rule="evenodd" clip-rule="evenodd" d="M12.2097 4.76642L13.4045 5.18565L7.89555 6.14768C7.29455 6.25263 6.67608 6.18405 6.11267 5.94997L5.90829 5.86506C5.8687 5.84861 5.83298 5.82479 5.80286 5.79519L12.2097 4.76642Z" fill="white"/>
<path fill-rule="evenodd" clip-rule="evenodd" d="M18.7194 5.6654C18.451 5.58552 18.0528 5.44577 17.5246 5.24617V5.18225C17.5246 4.99776 17.3751 4.84821 17.1906 4.84821C17.1734 4.84821 17.1563 4.84953 17.1393 4.85217L10.972 5.81095C10.7377 5.84738 10.5649 6.04913 10.5649 6.28627V17.2311C10.5649 17.8052 10.9052 18.3247 11.4315 18.554L11.7835 18.7074C12.3992 18.9757 13.0892 19.0209 13.7346 18.8351L18.5998 17.4351C18.886 17.3527 19.0831 17.0908 19.0831 16.793V5.95969C19.0831 5.79349 18.9484 5.65876 18.7822 5.65876C18.7611 5.65876 18.74 5.66099 18.7194 5.6654Z" fill="#18B860"/>
<path fill-rule="evenodd" clip-rule="evenodd" d="M19.0831 8.80994V16.7927C19.0831 17.0906 18.8859 17.3525 18.5997 17.4348L13.7469 18.8306C13.0939 19.019 12.3948 18.9736 11.7721 18.7022L11.4315 18.5538C10.9052 18.3245 10.5649 17.805 10.5649 17.2309V15.0613C11.1245 13.8812 11.9521 13.2108 13.0475 13.0501C14.9185 12.7756 15.8658 12.4146 16.9129 10.6131C17.321 9.91115 17.9231 9.34351 18.7194 8.91019L19.0831 8.80994Z" fill="url(#paint3_linear)"/>
<path fill-rule="evenodd" clip-rule="evenodd" d="M10.5649 12.0198C11.2474 12.6991 11.9153 13.0304 13.0304 12.7756L13.464 13.6508C12.0341 14.0112 11.2474 13.6508 10.5649 13.1326V12.0198ZM10.5649 14.3824C11.2474 15.0617 11.9153 15.393 13.0304 15.1382L13.464 17.0074C12.0341 17.3679 11.2474 17.0074 10.5649 16.4892V14.3824Z" fill="#FFC909"/>
<path fill-rule="evenodd" clip-rule="evenodd" d="M13.1582 13.0336L13.464 13.6508C12.6745 13.8498 12.0811 13.8291 11.5931 13.6834C12.0096 13.3424 12.4944 13.1313 13.0475 13.0501C13.0848 13.0447 13.1217 13.0392 13.1582 13.0336H13.1582ZM10.8077 14.6089C11.412 15.1321 12.0474 15.3629 13.0304 15.1383L13.464 17.0075C12.0341 17.3679 11.2474 17.0075 10.5649 16.4893V15.0613C10.6409 14.9011 10.7218 14.7503 10.8077 14.6089Z" fill="url(#paint4_linear)"/>
<path opacity="0.2" fill-rule="evenodd" clip-rule="evenodd" d="M11.4929 18.5806L11.4315 18.5539C10.9052 18.3245 10.5649 17.805 10.5649 17.2309V6.28609C10.5649 6.04895 10.7377 5.8472 10.972 5.81077L11.4929 5.7298V18.5806Z" fill="#2D2D2F"/>
<path fill-rule="evenodd" clip-rule="evenodd" d="M12.7362 18.9406V5.5365L17.1393 4.85199C17.1563 4.84935 17.1734 4.84802 17.1906 4.84802C17.3751 4.84802 17.5247 4.99758 17.5247 5.18207V5.28239C18.0463 5.45545 18.4413 5.58192 18.7096 5.6618C18.7296 5.65787 18.7499 5.65589 18.7702 5.65589C18.943 5.65589 19.0831 5.79598 19.0831 5.96881V16.7928C19.0831 17.0907 18.886 17.3525 18.5998 17.4349L13.7346 18.835C13.4081 18.9289 13.0702 18.9638 12.7362 18.9406Z" fill="url(#paint5_linear)"/>
<path fill-rule="evenodd" clip-rule="evenodd" d="M19.0831 8.80994V16.7928C19.0831 16.8578 19.0737 16.9212 19.056 16.9813C18.9927 17.1964 18.8234 17.3705 18.5997 17.4348L13.747 18.8306C13.4165 18.926 13.0744 18.9614 12.7362 18.9381V13.1113C12.8375 13.0861 12.9413 13.0657 13.0476 13.0501C14.9185 12.7756 15.8658 12.4146 16.913 10.6131C17.321 9.91115 17.9231 9.34351 18.7194 8.91019L19.0831 8.80994Z" fill="url(#paint6_linear)"/>
<path fill-rule="evenodd" clip-rule="evenodd" d="M17.5246 5.18206V5.24597L18.7096 5.66179L13.5528 6.58267C12.7285 6.71669 11.883 6.61109 11.1169 6.27845C11.0198 6.23629 10.957 6.14054 10.957 6.0347C10.957 5.92158 11.0277 5.82496 11.1273 5.78662L17.1393 4.85197C17.3216 4.82363 17.4923 4.94844 17.5207 5.13074C17.5233 5.14772 17.5246 5.16487 17.5246 5.18206Z" fill="#18B860"/>
<path fill-rule="evenodd" clip-rule="evenodd" d="M18.7096 5.66179L13.2123 6.63803C12.6096 6.73601 11.9915 6.6638 11.4276 6.42952L11.2232 6.34461C11.1836 6.32816 11.1479 6.30434 11.1178 6.27474L17.5247 5.24597L18.7096 5.66179Z" fill="white"/>
<defs>
<linearGradient id="paint0_linear" x1="5.25" y1="17.1139" x2="5.25" y2="4.3984" gradientUnits="userSpaceOnUse">
<stop stop-color="#FFE47F"/>
<stop offset="1" stop-color="#FFC909"/>
</linearGradient>
<linearGradient id="paint1_linear" x1="5.71399" y1="10.1336" x2="5.71399" y2="7.41741" gradientUnits="userSpaceOnUse">
<stop stop-color="#77DEA5"/>
<stop offset="1" stop-color="#18B860"/>
</linearGradient>
<linearGradient id="paint2_linear" x1="10.9448" y1="17.9557" x2="10.2189" y2="6.23869" gradientUnits="userSpaceOnUse">
<stop stop-color="#AB8707"/>
<stop offset="1" stop-color="#D6AA0C"/>
</linearGradient>
<linearGradient id="paint3_linear" x1="14.824" y1="8.80994" x2="14.824" y2="18.945" gradientUnits="userSpaceOnUse">
<stop stop-color="#18B860"/>
<stop offset="1" stop-color="#13954D"/>
</linearGradient>
<linearGradient id="paint4_linear" x1="11.9447" y1="17.0312" x2="11.5114" y2="13.0573" gradientUnits="userSpaceOnUse">
<stop stop-color="#AB8707"/>
<stop offset="1" stop-color="#D6AA0C"/>
</linearGradient>
<linearGradient id="paint5_linear" x1="15.9097" y1="18.9475" x2="15.9097" y2="3.1445" gradientUnits="userSpaceOnUse">
<stop stop-color="#77DEA5"/>
<stop offset="1" stop-color="#18B860"/>
</linearGradient>
<linearGradient id="paint6_linear" x1="16.5274" y1="18.191" x2="14.5946" y2="11.3962" gradientUnits="userSpaceOnUse">
<stop stop-color="#77DEA5"/>
<stop offset="1" stop-color="#18B860"/>
</linearGradient>
</defs>
</svg>
