<svg width="24" height="24" viewBox="0 0 24 24" fill="none" xmlns="http://www.w3.org/2000/svg">
<path d="M4.125 8.49371H20.1562V18.9047C20.1562 19.1869 20.0441 19.4575 19.8446 19.6571C19.645 19.8566 19.3744 19.9687 19.0922 19.9687H5.18906C4.90686 19.9687 4.63621 19.8566 4.43666 19.6571C4.23711 19.4575 4.125 19.1869 4.125 18.9047V8.49371Z" fill="#18B860"/>
<path d="M19.0921 19.9687C19.3743 19.9687 19.6449 19.8566 19.8445 19.6571C20.044 19.4575 20.1561 19.1869 20.1561 18.9047V8.50311C17.3108 9.81561 18.0702 13.6453 16.753 15.4453C15.3421 17.3719 13.7577 16.4812 11.4983 18.1781C10.886 18.6268 10.4249 19.2514 10.1765 19.9687H19.0921Z" fill="url(#paint0_linear)"/>
<path d="M16.8376 4.78125C16.8376 4.31526 16.4598 3.9375 15.9938 3.9375C15.5278 3.9375 15.1501 4.31526 15.1501 4.78125V6.37734C15.1501 6.84333 15.5278 7.22109 15.9938 7.22109C16.4598 7.22109 16.8376 6.84333 16.8376 6.37734V4.78125Z" fill="#FFC909"/>
<path opacity="0.5" d="M16.8376 4.78125C16.8376 4.31526 16.4598 3.9375 15.9938 3.9375C15.5278 3.9375 15.1501 4.31526 15.1501 4.78125V6.37734C15.1501 6.84333 15.5278 7.22109 15.9938 7.22109C16.4598 7.22109 16.8376 6.84333 16.8376 6.37734V4.78125Z" fill="url(#paint1_linear)"/>
<path opacity="0.3" d="M15.286 6.53905V4.9453C15.286 4.72152 15.3749 4.50691 15.5331 4.34868C15.6913 4.19044 15.9059 4.10155 16.1297 4.10155C16.3466 4.10117 16.555 4.18524 16.711 4.33592C16.6143 4.1799 16.4693 4.05967 16.2981 3.99345C16.1269 3.92724 15.9388 3.91866 15.7623 3.96902C15.5858 4.01937 15.4305 4.12592 15.32 4.27249C15.2095 4.41907 15.1498 4.59768 15.15 4.78124V6.37499C15.1498 6.48911 15.1729 6.60207 15.2181 6.70689C15.2633 6.8117 15.3294 6.90614 15.4125 6.98436C15.3294 6.85073 15.2856 6.69642 15.286 6.53905Z" fill="url(#paint2_linear)"/>
<path d="M8.85938 4.78125C8.85938 4.31526 8.48162 3.9375 8.01562 3.9375C7.54963 3.9375 7.17188 4.31526 7.17188 4.78125V6.37734C7.17188 6.84333 7.54963 7.22109 8.01562 7.22109C8.48162 7.22109 8.85938 6.84333 8.85938 6.37734V4.78125Z" fill="#FFC909"/>
<path opacity="0.5" d="M8.85938 4.78125C8.85938 4.31526 8.48162 3.9375 8.01562 3.9375C7.54963 3.9375 7.17188 4.31526 7.17188 4.78125V6.37734C7.17188 6.84333 7.54963 7.22109 8.01562 7.22109C8.48162 7.22109 8.85938 6.84333 8.85938 6.37734V4.78125Z" fill="url(#paint3_linear)"/>
<path opacity="0.3" d="M7.30781 6.53905V4.9453C7.30781 4.72152 7.39671 4.50691 7.55494 4.34868C7.71317 4.19044 7.92779 4.10155 8.15156 4.10155C8.36841 4.10117 8.57688 4.18524 8.73281 4.33592C8.63612 4.1799 8.49118 4.05967 8.31998 3.99345C8.14878 3.92724 7.96066 3.91866 7.78415 3.96902C7.60764 4.01937 7.45236 4.12592 7.34187 4.27249C7.23137 4.41907 7.17169 4.59768 7.17188 4.78124V6.37499C7.17163 6.48911 7.1948 6.60207 7.23995 6.70689C7.2851 6.8117 7.35127 6.90614 7.43438 6.98436C7.35126 6.85073 7.30741 6.69642 7.30781 6.53905Z" fill="url(#paint4_linear)"/>
<path d="M17.4563 10.1016H6.82034C6.21714 10.1016 5.72815 10.5906 5.72815 11.1938V17.273C5.72815 17.8762 6.21714 18.3652 6.82034 18.3652H17.4563C18.0595 18.3652 18.5485 17.8762 18.5485 17.273V11.1938C18.5485 10.5906 18.0595 10.1016 17.4563 10.1016Z" fill="#FFC909"/>
<path d="M19.0922 5.57343H17.3109C17.2984 5.57276 17.286 5.57472 17.2743 5.57919C17.2626 5.58366 17.252 5.59054 17.2431 5.59939C17.2343 5.60823 17.2274 5.61884 17.2229 5.63052C17.2185 5.6422 17.2165 5.65469 17.2172 5.66718V6.35156C17.2172 7.01249 16.6969 7.57499 16.0312 7.59374C15.8681 7.59877 15.7056 7.57096 15.5533 7.51196C15.4011 7.45297 15.2623 7.36399 15.1451 7.25031C15.0279 7.13664 14.9348 7.00058 14.8712 6.85022C14.8076 6.69985 14.7749 6.53825 14.775 6.37499V5.66718C14.7757 5.65469 14.7737 5.6422 14.7692 5.63052C14.7648 5.61884 14.7579 5.60823 14.749 5.59939C14.7402 5.59054 14.7296 5.58366 14.7179 5.57919C14.7062 5.57472 14.6937 5.57276 14.6813 5.57343H9.31875C9.30626 5.57276 9.29377 5.57472 9.28209 5.57919C9.27041 5.58366 9.2598 5.59054 9.25096 5.59939C9.24211 5.60823 9.23523 5.61884 9.23076 5.63052C9.22628 5.6422 9.22432 5.65469 9.225 5.66718V6.35156C9.225 7.01249 8.70469 7.57499 8.03906 7.59374C7.87589 7.59877 7.71336 7.57096 7.56114 7.51196C7.40892 7.45297 7.2701 7.36399 7.15293 7.25031C7.03576 7.13664 6.94262 7.00058 6.87904 6.85022C6.81546 6.69985 6.78274 6.53825 6.78281 6.37499V5.66718C6.78349 5.65469 6.78153 5.6422 6.77706 5.63052C6.77258 5.61884 6.7657 5.60823 6.75686 5.59939C6.74801 5.59054 6.73741 5.58366 6.72572 5.57919C6.71404 5.57472 6.70155 5.57276 6.68906 5.57343H5.18906C4.90643 5.57467 4.63579 5.68782 4.43637 5.88812C4.23695 6.08841 4.125 6.35954 4.125 6.64218V8.50312H20.1562V6.64218C20.1563 6.35954 20.0443 6.08841 19.8449 5.88812C19.6455 5.68782 19.3748 5.57467 19.0922 5.57343Z" fill="#FFC909"/>
<path opacity="0.7" d="M19.0922 5.57343H17.3109C17.2984 5.57276 17.286 5.57472 17.2743 5.57919C17.2626 5.58366 17.252 5.59054 17.2431 5.59939C17.2343 5.60823 17.2274 5.61884 17.2229 5.63052C17.2185 5.6422 17.2165 5.65469 17.2172 5.66718V6.35156C17.2172 7.01249 16.6969 7.57499 16.0312 7.59374C15.8682 7.59812 15.706 7.56986 15.5541 7.51063C15.4021 7.4514 15.2636 7.3624 15.1465 7.24885C15.0295 7.13531 14.9363 6.99951 14.8725 6.84944C14.8087 6.69937 14.7756 6.53806 14.775 6.37499V5.66718C14.7757 5.65469 14.7737 5.6422 14.7692 5.63052C14.7648 5.61884 14.7579 5.60823 14.749 5.59939C14.7402 5.59054 14.7296 5.58366 14.7179 5.57919C14.7062 5.57472 14.6937 5.57276 14.6813 5.57343H9.31875C9.30626 5.57276 9.29377 5.57472 9.28209 5.57919C9.27041 5.58366 9.2598 5.59054 9.25096 5.59939C9.24211 5.60823 9.23523 5.61884 9.23076 5.63052C9.22628 5.6422 9.22432 5.65469 9.225 5.66718V6.35156C9.225 7.01249 8.70469 7.57499 8.03906 7.59374C7.87605 7.59812 7.71381 7.56986 7.56188 7.51063C7.40995 7.4514 7.27139 7.3624 7.15435 7.24885C7.03731 7.13531 6.94415 6.99951 6.88034 6.84944C6.81654 6.69937 6.78338 6.53806 6.78281 6.37499V5.66718C6.78349 5.65469 6.78153 5.6422 6.77706 5.63052C6.77258 5.61884 6.7657 5.60823 6.75686 5.59939C6.74801 5.59054 6.73741 5.58366 6.72572 5.57919C6.71404 5.57472 6.70155 5.57276 6.68906 5.57343H5.18906C4.90643 5.57467 4.63579 5.68782 4.43637 5.88812C4.23695 6.08841 4.125 6.35954 4.125 6.64218V8.50312H20.1562V6.64218C20.1563 6.35954 20.0443 6.08841 19.8449 5.88812C19.6455 5.68782 19.3748 5.57467 19.0922 5.57343Z" fill="url(#paint5_linear)"/>
<path opacity="0.6" d="M11.4985 18.1781L11.2689 18.3656H17.461C17.7503 18.3644 18.0274 18.2489 18.232 18.0444C18.4365 17.8398 18.552 17.5627 18.5532 17.2734V11.1891C18.5516 10.9355 18.4621 10.6903 18.3001 10.4953C17.5876 12.15 17.6298 14.25 16.7532 15.4453C15.3423 17.3719 13.7579 16.4812 11.4985 18.1781Z" fill="url(#paint6_linear)"/>
<path d="M8.53114 13.5516C9.11104 13.5516 9.58114 13.0815 9.58114 12.5016C9.58114 11.9217 9.11104 11.4516 8.53114 11.4516C7.95124 11.4516 7.48114 11.9217 7.48114 12.5016C7.48114 13.0815 7.95124 13.5516 8.53114 13.5516Z" fill="white"/>
<path d="M8.53114 17.0156C9.11104 17.0156 9.58114 16.5455 9.58114 15.9656C9.58114 15.3858 9.11104 14.9156 8.53114 14.9156C7.95124 14.9156 7.48114 15.3858 7.48114 15.9656C7.48114 16.5455 7.95124 17.0156 8.53114 17.0156Z" fill="white"/>
<path d="M11.9999 13.5516C12.5798 13.5516 13.0499 13.0815 13.0499 12.5016C13.0499 11.9217 12.5798 11.4516 11.9999 11.4516C11.42 11.4516 10.9499 11.9217 10.9499 12.5016C10.9499 13.0815 11.42 13.5516 11.9999 13.5516Z" fill="white"/>
<path d="M11.9999 17.0156C12.5798 17.0156 13.0499 16.5455 13.0499 15.9656C13.0499 15.3858 12.5798 14.9156 11.9999 14.9156C11.42 14.9156 10.9499 15.3858 10.9499 15.9656C10.9499 16.5455 11.42 17.0156 11.9999 17.0156Z" fill="white"/>
<path d="M15.4686 13.5516C16.0485 13.5516 16.5186 13.0815 16.5186 12.5016C16.5186 11.9217 16.0485 11.4516 15.4686 11.4516C14.8887 11.4516 14.4186 11.9217 14.4186 12.5016C14.4186 13.0815 14.8887 13.5516 15.4686 13.5516Z" fill="white"/>
<path d="M15.4686 17.0156C16.0485 17.0156 16.5186 16.5455 16.5186 15.9656C16.5186 15.3858 16.0485 14.9156 15.4686 14.9156C14.8887 14.9156 14.4186 15.3858 14.4186 15.9656C14.4186 16.5455 14.8887 17.0156 15.4686 17.0156Z" fill="white"/>
<path d="M15.4688 17.0157C15.7473 17.0157 16.0144 16.905 16.2113 16.7081C16.4082 16.5112 16.5189 16.2441 16.5189 15.9656C16.5198 15.8964 16.5135 15.8273 16.5001 15.7594C15.9751 16.35 15.422 16.6078 14.822 16.7907C15.006 16.9365 15.234 17.0158 15.4688 17.0157Z" fill="url(#paint7_linear)"/>
<defs>
<linearGradient id="paint0_linear" x1="10.5" y1="9.5" x2="20" y2="19.5" gradientUnits="userSpaceOnUse">
<stop stop-color="#18B860"/>
<stop offset="1" stop-color="#0D8543"/>
</linearGradient>
<linearGradient id="paint1_linear" x1="14.9645" y1="4.68234" x2="17.0279" y2="6.47625" gradientUnits="userSpaceOnUse">
<stop stop-color="#FFC909"/>
<stop offset="1" stop-color="#C49B06"/>
</linearGradient>
<linearGradient id="paint2_linear" x1="14.9588" y1="5.16327" x2="16.2413" y2="5.63015" gradientUnits="userSpaceOnUse">
<stop stop-color="#FFE47F"/>
<stop offset="1" stop-color="#FFC909"/>
</linearGradient>
<linearGradient id="paint3_linear" x1="6.98625" y1="4.68234" x2="9.04969" y2="6.47625" gradientUnits="userSpaceOnUse">
<stop stop-color="#FFC909"/>
<stop offset="1" stop-color="#C49B06"/>
</linearGradient>
<linearGradient id="paint4_linear" x1="6.98063" y1="5.16327" x2="8.26312" y2="5.63014" gradientUnits="userSpaceOnUse">
<stop stop-color="#FFE47F"/>
<stop offset="1" stop-color="#FFC909"/>
</linearGradient>
<linearGradient id="paint5_linear" x1="4.125" y1="7.03781" x2="20.1563" y2="7.03781" gradientUnits="userSpaceOnUse">
<stop stop-color="#FFE47F"/>
<stop offset="0.13" stop-color="#FFDD5F"/>
<stop offset="0.28" stop-color="#FFD640"/>
<stop offset="0.44" stop-color="#FFD028"/>
<stop offset="0.6" stop-color="#FFCC17"/>
<stop offset="0.78" stop-color="#FFCA0C"/>
<stop offset="1" stop-color="#FFC909"/>
</linearGradient>
<linearGradient id="paint6_linear" x1="3094.23" y1="1974.3" x2="1988.28" y2="3284.47" gradientUnits="userSpaceOnUse">
<stop stop-color="#FFC909"/>
<stop offset="1" stop-color="#9E8204"/>
</linearGradient>
<linearGradient id="paint7_linear" x1="16.5198" y1="16.3889" x2="14.8201" y2="16.3889" gradientUnits="userSpaceOnUse">
<stop stop-color="white"/>
<stop offset="1" stop-color="#E6E7E8"/>
</linearGradient>
</defs>
</svg>
