<svg width="24" height="24" viewBox="0 0 24 24" fill="none" xmlns="http://www.w3.org/2000/svg">
<path fill-rule="evenodd" clip-rule="evenodd" d="M11.9869 18.7305L3.81881 18.0507C3.56799 18.0299 3.375 17.8197 3.375 17.5673V7.42507C3.375 7.15721 3.59157 6.94006 3.85872 6.94006C3.87929 6.94006 3.89983 6.94138 3.92023 6.944L11.9971 7.98209L20.0739 6.944C20.0943 6.94138 20.1149 6.94006 20.1354 6.94006C20.4026 6.94006 20.6191 7.15721 20.6191 7.42507V17.5673C20.6191 17.8197 20.4262 18.0299 20.1753 18.0507L12.0072 18.7288L11.9971 18.7297L11.9869 18.7305Z" fill="url(#paint0_linear)"/>
<path fill-rule="evenodd" clip-rule="evenodd" d="M11.9914 18.75L3.80419 17.844C3.55988 17.817 3.375 17.6105 3.375 17.3647V7.20477C3.375 6.93844 3.5909 6.72253 3.85723 6.72253C3.87779 6.72253 3.89832 6.72385 3.91871 6.72647L12.0072 7.76606L11.9914 18.75Z" fill="#18B860"/>
<path fill-rule="evenodd" clip-rule="evenodd" d="M11.9915 18.75L20.1899 17.844C20.4343 17.8169 20.6192 17.6105 20.6192 17.3646V7.20477C20.6192 6.93844 20.4033 6.72253 20.137 6.72253C20.1164 6.72253 20.0959 6.72385 20.0755 6.72647L11.987 7.76606L11.9915 18.75Z" fill="#13954D"/>
<path fill-rule="evenodd" clip-rule="evenodd" d="M12.0072 17.7965C12.0072 16.0517 11.9869 9.75488 11.9869 6.88206C9.23719 5.32796 7.62797 6.00619 4.51279 5.55911C4.35123 5.53592 4.14067 5.80707 3.8811 6.37255C3.85213 6.43566 3.83713 6.50428 3.83713 6.57373C3.83713 6.65835 3.83713 6.76932 3.83713 6.90666C3.83713 9.72131 3.83713 14.0709 3.83713 16.3984C3.83713 16.5064 3.83713 16.6337 3.83713 16.7804C3.83713 17.0161 4.00747 17.2172 4.23993 17.256C4.35087 17.2746 4.44182 17.2854 4.51279 17.2886C6.82047 17.3917 9.00282 17.3917 11.9869 18.2715C11.997 17.998 11.9982 17.998 12.0072 17.7965Z" fill="#D6AA0C"/>
<path fill-rule="evenodd" clip-rule="evenodd" d="M12.0072 17.7965C12.0072 16.0517 11.9869 9.75488 11.9869 6.88206C9.23719 5.32796 7.62797 6.00619 4.51279 5.55911C4.35123 5.53592 4.14067 5.80707 3.8811 6.37255C3.85213 6.43566 3.83713 6.50428 3.83713 6.57373C3.83713 6.65835 3.83713 6.76932 3.83713 6.90666C3.83713 9.72131 3.83713 14.0709 3.83713 16.3984C3.83713 16.5064 3.83713 16.6337 3.83713 16.7804C3.83713 17.0161 4.00747 17.2172 4.23993 17.256C4.35087 17.2746 4.44182 17.2854 4.51279 17.2886C6.82047 17.3917 9.00282 17.3917 11.9869 18.2715C11.997 17.998 11.9982 17.998 12.0072 17.7965Z" fill="#D6AA0C"/>
<path fill-rule="evenodd" clip-rule="evenodd" d="M11.9869 6.88206C9.23719 5.32796 7.62797 6.00619 4.51279 5.55911C4.35123 5.53592 4.14067 5.80707 3.8811 6.37255C3.85213 6.43566 3.83713 6.50428 3.83713 6.57373C3.83713 6.65835 3.83713 6.76932 3.83713 6.90666C3.83713 9.72131 3.83713 14.0709 3.83713 16.3984C3.83713 16.5064 3.83713 16.6337 3.83713 16.7804C3.83713 17.0161 4.00747 17.2172 4.23993 17.256C4.35087 17.2746 4.44182 17.2854 4.51279 17.2886C6.82047 17.3917 9.00282 17.3917 11.9869 18.2715C11.997 17.998 11.9869 9.75488 11.9869 6.88206Z" fill="#D6AA0C"/>
<path fill-rule="evenodd" clip-rule="evenodd" d="M4.51277 5.55911C7.62795 6.00619 9.23717 5.32796 11.9869 6.88206V17.7965C11.0401 17.3223 8.91578 16.6135 6.60573 16.5377C5.81955 16.512 5.2072 16.506 4.76869 16.52C4.58383 16.5259 4.42921 16.3808 4.42333 16.1959C4.42321 16.1924 4.42316 16.1888 4.42316 16.1853V5.57411C4.45454 5.56004 4.48441 5.55504 4.51277 5.55911Z" fill="#B28D06"/>
<path fill-rule="evenodd" clip-rule="evenodd" d="M11.9869 6.90666C14.7366 5.35255 16.4958 6.00619 19.611 5.55911C19.7725 5.53592 19.9831 5.80707 20.2427 6.37255C20.2716 6.43566 20.2866 6.50428 20.2866 6.57373C20.2866 6.65835 20.2866 6.76932 20.2866 6.90666C20.2866 9.72131 20.2866 14.0709 20.2866 16.3984C20.2866 16.5064 20.2866 16.6337 20.2866 16.7804C20.2866 17.0161 20.1163 17.2172 19.8838 17.256C19.7729 17.2746 19.6819 17.2854 19.611 17.2886C17.3033 17.3917 14.971 17.3917 11.9869 18.2715C11.9869 17.9713 11.9869 9.77948 11.9869 6.90666Z" fill="#C49A05"/>
<path fill-rule="evenodd" clip-rule="evenodd" d="M19.611 5.55911C16.4958 6.00619 14.7366 5.32796 11.9869 6.88206V17.7799C13.8731 16.9519 16.2794 16.5159 19.2058 16.4722C19.4802 16.4681 19.7006 16.2444 19.7006 15.9699V5.57411C19.6692 5.56004 19.6393 5.55504 19.611 5.55911Z" fill="#997801"/>
<path fill-rule="evenodd" clip-rule="evenodd" d="M11.9869 17.7965C11.9869 16.0517 11.9869 9.87242 11.9869 6.88204C10.1885 5.22632 8.14895 4.82909 5.59031 4.87906C5.47042 4.8814 5.31292 4.88798 5.11782 4.8988C4.86226 4.91297 4.66229 5.12433 4.66229 5.38029C4.66229 5.58753 4.66229 5.76132 4.66229 5.90166C4.66229 8.7287 4.66229 13.0104 4.66229 15.2995C4.66229 15.3801 4.66229 15.472 4.66229 15.5751C4.6623 15.8383 4.87331 16.0529 5.13646 16.0573C5.26629 16.0594 5.37326 16.062 5.45737 16.0649C8.09872 16.1555 9.82222 16.716 11.9869 17.7965Z" fill="#FFC909"/>
<path fill-rule="evenodd" clip-rule="evenodd" d="M6.4119 15.1463C6.21645 14.8687 5.94965 14.5686 5.61151 14.2459V6.67161L6.4119 5.83051C8.23554 5.95278 9.59202 6.29786 10.4814 6.86572C10.8203 7.47452 11.0612 7.86337 11.2041 8.03226V15.614C11.0696 15.7662 10.8982 15.9673 10.69 16.2175C9.54749 15.7885 8.3347 15.2458 6.4119 15.1463Z" fill="url(#paint1_linear)"/>
<path opacity="0.5" fill-rule="evenodd" clip-rule="evenodd" d="M11.041 6.25842L10.8256 17.2452L10.6822 17.9385V18.5859L11.2042 18.6411L11.3273 6.47005L11.041 6.25842Z" fill="#6C6C6C"/>
<path fill-rule="evenodd" clip-rule="evenodd" d="M11.987 17.7965C11.987 16.0517 11.987 9.87242 11.987 6.88204C13.7854 5.22632 15.8984 4.82909 18.457 4.87906C18.5769 4.8814 18.7344 4.88798 18.9295 4.8988C19.1851 4.91297 19.385 5.12433 19.385 5.38029C19.385 5.58753 19.385 5.76132 19.385 5.90166C19.385 8.7287 19.385 13.0104 19.385 15.2995C19.385 15.3801 19.385 15.472 19.385 15.5751C19.385 15.8383 19.174 16.0529 18.9109 16.0573C18.781 16.0594 18.6741 16.062 18.59 16.0649C15.9486 16.1555 14.1516 16.716 11.987 17.7965Z" fill="#F1BC00"/>
<path fill-rule="evenodd" clip-rule="evenodd" d="M17.6354 15.1463C17.8308 14.8687 18.0976 14.5686 18.4358 14.2459V6.67161L17.6354 5.83051C15.8118 5.95278 14.4553 6.29786 13.5659 6.86572C13.227 7.47452 12.9861 7.86337 12.8432 8.03226V15.614C12.9777 15.7662 13.1491 15.9673 13.3573 16.2175C14.4998 15.7885 15.7126 15.2458 17.6354 15.1463Z" fill="url(#paint2_linear)"/>
<path opacity="0.2" fill-rule="evenodd" clip-rule="evenodd" d="M12.7829 17.4173C12.6823 15.8251 13.3426 14.3413 14.7659 12.9208C16.9897 10.7015 15.5781 7.58773 19.385 6.65656V15.2995V15.5751C19.385 15.8383 19.174 16.0528 18.9108 16.0572C18.781 16.0594 18.674 16.0619 18.5899 16.0648C16.546 16.1092 14.6104 16.56 12.7829 17.4173Z" fill="#2D2D2F"/>
<path fill-rule="evenodd" clip-rule="evenodd" d="M12.9684 15.7575C13.2546 14.7767 13.8538 13.8311 14.7659 12.9208C16.779 10.9118 15.813 8.16986 18.4357 6.97748V14.246C18.0976 14.5686 17.8308 14.8687 17.6353 15.1463C15.7125 15.2458 14.4998 15.7885 13.3572 16.2175C13.2089 16.0393 13.0793 15.886 12.9684 15.7575Z" fill="url(#paint3_linear)"/>
<path fill-rule="evenodd" clip-rule="evenodd" d="M11.6136 6.47008C11.46 6.33511 11.3266 6.22896 11.2135 6.15162C11.1932 6.13774 11.1649 6.11886 11.1286 6.09497C11.1113 6.0836 11.088 6.08841 11.0767 6.10571C11.0726 6.11182 11.0705 6.11898 11.0705 6.1263C11.0705 6.16448 11.0705 6.19974 11.0705 6.23208C11.0705 6.86044 11.0607 11.0872 11.041 18.9123L11.3287 18.8119L11.6136 19.033V6.47008Z" fill="#13954D"/>
<defs>
<linearGradient id="paint0_linear" x1="9.07568" y1="13.7825" x2="14.8857" y2="13.2793" gradientUnits="userSpaceOnUse">
<stop stop-color="#77DEA5"/>
<stop offset="1" stop-color="#18B860"/>
</linearGradient>
<linearGradient id="paint1_linear" x1="8.40782" y1="5.83051" x2="8.40782" y2="16.2175" gradientUnits="userSpaceOnUse">
<stop stop-color="white" stop-opacity="0.628196"/>
<stop offset="1" stop-color="white"/>
</linearGradient>
<linearGradient id="paint2_linear" x1="15.6395" y1="5.83051" x2="15.6395" y2="16.2175" gradientUnits="userSpaceOnUse">
<stop stop-color="white" stop-opacity="0.628196"/>
<stop offset="1" stop-color="white"/>
</linearGradient>
<linearGradient id="paint3_linear" x1="16.3374" y1="7.73451" x2="14.5743" y2="15.9762" gradientUnits="userSpaceOnUse">
<stop stop-color="#EBD587"/>
<stop offset="1" stop-color="#F4ECD3"/>
</linearGradient>
</defs>
</svg>
