<svg width="24" height="24" viewBox="0 0 24 24" fill="none" xmlns="http://www.w3.org/2000/svg">
<path fill-rule="evenodd" clip-rule="evenodd" d="M13.7914 15.4649L15.9413 17.3322C15.9413 17.3322 20.3415 13.2656 19.7945 12.8339C18.3991 11.7327 16.2898 9.89756 16.2898 9.89756C16.2898 9.89756 15.2485 7.81268 14.5954 7.15855C13.9424 6.50442 12.8673 5.88213 12.0389 5.88213C11.2105 5.88213 10.3646 5.91724 9.17569 5.64484C7.9868 5.37244 7.03161 4.89281 6.8029 5.14041C6.5742 5.38801 5.88704 6.64783 8.94189 7.95705C11.9967 9.26627 10.3525 9.07924 11.311 10.8005C12.2694 12.5218 11.613 13.2883 11.1919 13.7368C10.7708 14.1853 11.0671 15.1249 11.6548 15.2949C12.2425 15.4649 13.7914 15.4649 13.7914 15.4649Z" fill="#FFC909"/>
<path fill-rule="evenodd" clip-rule="evenodd" d="M7.46558 7.95703H10.064C12.9318 8.06968 13.1191 8.7392 13.5975 9.25421C14.2303 9.93557 15.3431 12.6514 17.2758 13.1819C18.2345 13.445 19.0731 13.3283 19.7915 12.8316C19.7915 12.8316 15.912 17.0336 15.3538 16.6207C14.833 16.2354 13.7914 15.4649 13.7914 15.4649C12.7588 15.4649 12.0466 15.4082 11.6548 15.2949C11.0671 15.1248 10.7708 14.1852 11.1919 13.7367C11.613 13.2882 12.2694 12.5218 11.3109 10.8005C10.6034 9.5299 8.46932 8.57074 7.46558 7.95703Z" fill="url(#paint0_linear)"/>
<path fill-rule="evenodd" clip-rule="evenodd" d="M11.6548 15.2949C11.0671 15.1249 10.7708 14.1853 11.1919 13.7368C11.613 13.2883 12.2694 12.5218 11.3109 10.8006C11.2988 10.7789 11.2863 10.7573 11.2734 10.7357L12.3427 9.39099C13.4854 9.77001 13.916 10.7032 14.0568 12.1128C14.3405 14.9533 12.0466 15.4083 11.6548 15.2949Z" fill="url(#paint1_linear)"/>
<path d="M7.55016 8.51817C7.92891 8.51817 8.23594 8.21113 8.23594 7.83239C8.23594 7.45364 7.92891 7.14661 7.55016 7.14661C7.17141 7.14661 6.86438 7.45364 6.86438 7.83239C6.86438 8.21113 7.17141 8.51817 7.55016 8.51817Z" fill="#18B860"/>
<path d="M7.6748 9.765C8.05354 9.765 8.36058 9.45796 8.36058 9.07921C8.36058 8.70047 8.05354 8.39343 7.6748 8.39343C7.29605 8.39343 6.98901 8.70047 6.98901 9.07921C6.98901 9.45796 7.29605 9.765 7.6748 9.765Z" fill="#18B860"/>
<path d="M6.42797 7.77C6.80672 7.77 7.11375 7.46297 7.11375 7.08422C7.11375 6.70547 6.80672 6.39844 6.42797 6.39844C6.04922 6.39844 5.74219 6.70547 5.74219 7.08422C5.74219 7.46297 6.04922 7.77 6.42797 7.77Z" fill="#18B860"/>
<path d="M5.18114 8.14409C5.55989 8.14409 5.86692 7.83705 5.86692 7.4583C5.86692 7.07956 5.55989 6.77252 5.18114 6.77252C4.8024 6.77252 4.49536 7.07956 4.49536 7.4583C4.49536 7.83705 4.8024 8.14409 5.18114 8.14409Z" fill="#18B860"/>
<path d="M4.68236 9.39097C5.06111 9.39097 5.36814 9.08394 5.36814 8.70519C5.36814 8.32644 5.06111 8.01941 4.68236 8.01941C4.30362 8.01941 3.99658 8.32644 3.99658 8.70519C3.99658 9.08394 4.30362 9.39097 4.68236 9.39097Z" fill="#18B860"/>
<path d="M4.68236 10.6379C5.06111 10.6379 5.36814 10.3308 5.36814 9.95208C5.36814 9.57333 5.06111 9.2663 4.68236 9.2663C4.30362 9.2663 3.99658 9.57333 3.99658 9.95208C3.99658 10.3308 4.30362 10.6379 4.68236 10.6379Z" fill="#18B860"/>
<path d="M5.67986 13.0069C6.05861 13.0069 6.36564 12.6998 6.36564 12.3211C6.36564 11.9423 6.05861 11.6353 5.67986 11.6353C5.30111 11.6353 4.99408 11.9423 4.99408 12.3211C4.99408 12.6998 5.30111 13.0069 5.67986 13.0069Z" fill="#18B860"/>
<path d="M6.17858 14.1291C6.55733 14.1291 6.86436 13.822 6.86436 13.4433C6.86436 13.0645 6.55733 12.7575 6.17858 12.7575C5.79983 12.7575 5.4928 13.0645 5.4928 13.4433C5.4928 13.822 5.79983 14.1291 6.17858 14.1291Z" fill="#18B860"/>
<path d="M6.92669 15.1266C7.30543 15.1266 7.61247 14.8195 7.61247 14.4408C7.61247 14.062 7.30543 13.755 6.92669 13.755C6.54794 13.755 6.24091 14.062 6.24091 14.4408C6.24091 14.8195 6.54794 15.1266 6.92669 15.1266Z" fill="#18B860"/>
<path d="M7.79955 16.1241C8.1783 16.1241 8.48533 15.817 8.48533 15.4383C8.48533 15.0595 8.1783 14.7525 7.79955 14.7525C7.4208 14.7525 7.11377 15.0595 7.11377 15.4383C7.11377 15.817 7.4208 16.1241 7.79955 16.1241Z" fill="#18B860"/>
<path d="M8.92168 16.7475C9.30043 16.7475 9.60746 16.4405 9.60746 16.0618C9.60746 15.683 9.30043 15.376 8.92168 15.376C8.54294 15.376 8.2359 15.683 8.2359 16.0618C8.2359 16.4405 8.54294 16.7475 8.92168 16.7475Z" fill="#18B860"/>
<path d="M10.1686 16.7475C10.5474 16.7475 10.8544 16.4405 10.8544 16.0618C10.8544 15.683 10.5474 15.376 10.1686 15.376C9.78988 15.376 9.48285 15.683 9.48285 16.0618C9.48285 16.4405 9.78988 16.7475 10.1686 16.7475Z" fill="#18B860"/>
<path d="M11.0414 15.8747C11.4202 15.8747 11.7272 15.5677 11.7272 15.189C11.7272 14.8102 11.4202 14.5032 11.0414 14.5032C10.6627 14.5032 10.3557 14.8102 10.3557 15.189C10.3557 15.5677 10.6627 15.8747 11.0414 15.8747Z" fill="#18B860"/>
<path fill-rule="evenodd" clip-rule="evenodd" d="M3.54501 12.9206C4.04323 13.8127 4.17968 14.5498 3.95439 15.1316C3.77409 15.5973 3.62434 16.0317 3.50515 16.4348C3.49553 16.4673 3.4731 16.4945 3.443 16.5101C3.38188 16.5418 3.30662 16.518 3.2749 16.4569L3.2749 16.4569C2.72813 15.4032 2.52637 14.6081 2.6696 14.0718C2.82499 13.4899 3.1168 13.1062 3.54501 12.9206Z" fill="#FFC909"/>
<path d="M4.51547 10.8299C4.51547 10.8299 3.2157 12.7702 3.46035 13.1685C3.705 13.5669 5.33734 11.9347 5.61219 11.6157C5.88703 11.2968 5.64333 10.6835 5.20125 10.5467C4.75918 10.41 4.51547 10.8299 4.51547 10.8299Z" fill="#007AFF"/>
<path d="M14.4701 16.6466C14.1989 16.3754 14.1989 15.9357 14.4701 15.6644L18.2742 11.8604C18.5454 11.5891 18.9851 11.5891 19.2563 11.8604L20.7932 13.3973C21.0644 13.6685 21.0644 14.1082 20.7932 14.3794L16.9891 18.1835C16.7179 18.4547 16.2782 18.4547 16.007 18.1835L14.4701 16.6466Z" fill="#18B860"/>
<path d="M17.2951 12.8394L18.3155 11.8191C18.5867 11.5478 19.0264 11.5478 19.2976 11.8191L20.8345 13.356C21.1057 13.6272 21.1057 14.0669 20.8345 14.3381L19.8142 15.3585L17.2951 12.8394Z" fill="#12964D"/>
<path fill-rule="evenodd" clip-rule="evenodd" d="M6.5433 7.8544C6.14542 7.80321 5.74618 7.99506 5.63703 8.38108C5.5613 8.64889 5.51619 8.96928 5.59268 9.26628C5.7693 9.95207 5.89193 9.87657 5.98375 10.1161C5.88775 10.5132 5.98375 11.4986 6.86442 11.872C6.57354 12.422 7.07309 13.4013 8.00824 13.7118C8.20935 14.6113 8.58076 14.8778 9.0276 15.0522C10.6252 15.6757 12.7135 14.4485 13.1878 14.2528C13.6621 14.0572 14.0247 12.8748 13.0671 12.8748C13.124 12.7673 13.5493 12.6054 13.6621 12.422C13.9344 11.9794 13.8734 11.4236 13.1878 11.2932C13.7228 10.7338 13.352 10.0966 13.0671 9.9772C12.7822 9.85776 12.3239 9.7857 12.2539 9.76503C12.8928 9.39097 12.468 8.60981 11.7272 8.51816C11.1516 8.44694 7.94468 8.03468 6.5433 7.8544Z" fill="url(#paint2_linear)"/>
<path fill-rule="evenodd" clip-rule="evenodd" d="M8.09054 13.7118C8.14049 13.6613 9.36087 13.6886 10.3556 13.5659C11.3504 13.4433 12.9169 12.8589 12.9169 13.0069C12.9169 13.1549 11.8519 13.485 10.1686 13.755C8.48531 14.025 8.0406 13.7623 8.09054 13.7118Z" fill="url(#paint3_linear)"/>
<path fill-rule="evenodd" clip-rule="evenodd" d="M6.00733 10.8349C6.00728 10.7905 6.00558 10.7409 6.0038 10.6892C6.00183 10.6318 5.99976 10.5718 5.99976 10.5131C5.99976 10.2815 7.00551 10.3042 7.97838 10.3262C8.26105 10.3326 8.54095 10.3389 8.79259 10.3389C9.9103 10.3389 11.1587 10.1146 11.6243 9.95206C12.0898 9.7895 11.7272 9.76502 10.1686 9.95206C8.61005 10.1391 6.0621 9.98992 6.0621 9.98992C6.0621 9.98992 5.96409 9.92603 5.87378 9.93261C5.87544 9.93476 5.87709 9.93691 5.87873 9.93904C5.91789 9.98982 5.95259 10.0348 5.98374 10.1161C5.94361 10.2821 5.93704 10.5509 6.00733 10.8349Z" fill="url(#paint4_linear)"/>
<path fill-rule="evenodd" clip-rule="evenodd" d="M6.92357 12.7834C6.92471 12.7752 6.92575 12.7665 6.92671 12.7575C6.98147 12.2421 8.27264 12.1603 9.50344 12.0823C9.67394 12.0715 9.84329 12.0608 10.008 12.049C11.362 11.9521 12.7675 11.6353 12.9169 11.4986C13.0065 11.4166 12.8848 11.433 12.4717 11.4888C12.1965 11.526 11.792 11.5807 11.2345 11.6353C10.8075 11.6772 10.5122 11.7156 10.2574 11.7488C9.67996 11.8239 9.31019 11.872 8.08685 11.872C7.30649 11.872 6.89193 11.8256 6.67224 11.7739C6.73169 11.81 6.79564 11.8428 6.86437 11.872C6.73235 12.1216 6.76314 12.4596 6.92357 12.7834Z" fill="url(#paint5_linear)"/>
<defs>
<linearGradient id="paint0_linear" x1="24.2027" y1="10.1923" x2="14.4584" y2="-0.0180633" gradientUnits="userSpaceOnUse">
<stop stop-color="#FFC909"/>
<stop offset="1" stop-color="#C49B06"/>
</linearGradient>
<linearGradient id="paint1_linear" x1="3.48915" y1="8.04654" x2="17.3452" y2="20.2243" gradientUnits="userSpaceOnUse">
<stop stop-color="#FFC909"/>
<stop offset="1" stop-color="#9C7C09"/>
</linearGradient>
<linearGradient id="paint2_linear" x1="11.8878" y1="2.66446" x2="-7.68997" y2="1.5082" gradientUnits="userSpaceOnUse">
<stop stop-color="#FFC909"/>
<stop offset="1" stop-color="#C49B06"/>
</linearGradient>
<linearGradient id="paint3_linear" x1="13.9907" y1="12.6723" x2="11.4787" y2="16.6804" gradientUnits="userSpaceOnUse">
<stop stop-color="#FFC909"/>
<stop offset="1" stop-color="#B79210"/>
</linearGradient>
<linearGradient id="paint4_linear" x1="13.1336" y1="9.46748" x2="10.3804" y2="14.2188" gradientUnits="userSpaceOnUse">
<stop stop-color="#FFC909"/>
<stop offset="1" stop-color="#B79210"/>
</linearGradient>
<linearGradient id="paint5_linear" x1="14.3392" y1="10.9747" x2="10.3484" y2="16.4734" gradientUnits="userSpaceOnUse">
<stop stop-color="#FFC909"/>
<stop offset="1" stop-color="#B79210"/>
</linearGradient>
</defs>
</svg>
