<svg width="24" height="24" viewBox="0 0 24 24" fill="none" xmlns="http://www.w3.org/2000/svg">
<path fill-rule="evenodd" clip-rule="evenodd" d="M11.6238 4.6875H12.7204C12.7459 4.6875 12.7713 4.69 12.7963 4.69497C13.007 4.73688 13.1438 4.94178 13.1019 5.15262L12.6453 7.45138C12.6091 7.63353 12.4494 7.76472 12.2638 7.76472H12.0805C11.8949 7.76472 11.7352 7.63353 11.699 7.45138L11.2423 5.15262C11.2004 4.94178 11.3373 4.73688 11.548 4.69497C11.573 4.69 11.5984 4.6875 11.6238 4.6875ZM2.8125 12.4594V11.3621C2.8125 11.3366 2.815 11.3112 2.81996 11.2862C2.86185 11.0754 3.06661 10.9384 3.27732 10.9803L5.57457 11.4373C5.7566 11.4735 5.88772 11.6334 5.88772 11.8191V12.0025C5.88772 12.1882 5.7566 12.348 5.57457 12.3842L3.27732 12.8412C3.06661 12.8831 2.86185 12.7462 2.81996 12.5353C2.815 12.5103 2.8125 12.4849 2.8125 12.4594ZM21.4469 12.4594C21.4469 12.4849 21.4444 12.5103 21.4395 12.5353C21.3976 12.7462 21.1928 12.8831 20.9821 12.8412L18.6849 12.3842C18.5028 12.348 18.3717 12.1882 18.3717 12.0025V11.8191C18.3717 11.6334 18.5028 11.4735 18.6849 11.4373L20.9821 10.9803C21.1928 10.9384 21.3976 11.0754 21.4395 11.2862C21.4444 11.3112 21.4469 11.3366 21.4469 11.3621V12.4594ZM18.6614 7.31843C18.6794 7.33644 18.6956 7.35618 18.7098 7.37737C18.8291 7.55609 18.7811 7.79781 18.6025 7.91727L16.6552 9.21961C16.5009 9.32281 16.2952 9.30255 16.164 9.17123L16.0344 9.04154C15.9032 8.91022 15.8829 8.70443 15.9861 8.55003L17.2876 6.60144C17.4069 6.42272 17.6485 6.37467 17.8271 6.49412C17.8483 6.50828 17.868 6.52448 17.886 6.5425L18.6614 7.31843ZM5.59801 7.31843L6.37343 6.5425C6.39143 6.52448 6.41116 6.50828 6.43233 6.49412C6.61094 6.37467 6.8525 6.42272 6.97188 6.60144L8.27338 8.55003C8.3765 8.70443 8.35626 8.91022 8.22503 9.04154L8.09542 9.17123C7.96419 9.30255 7.75852 9.32281 7.60422 9.21961L5.65691 7.91727C5.47831 7.79781 5.43029 7.55609 5.54966 7.37737C5.56381 7.35618 5.58 7.33644 5.59801 7.31843ZM6.31332 14.4184C6.31332 11.1938 8.92561 8.57984 12.148 8.57984C15.3704 8.57984 17.9827 11.1938 17.9827 14.4184C17.9827 14.6176 17.9728 14.8146 17.9533 15.0088C18.5213 15.1086 18.971 15.2028 19.3025 15.2915C19.365 15.3083 19.4021 15.3725 19.3854 15.4351C19.3718 15.486 19.326 15.5216 19.2733 15.5221C19.2649 15.5222 19.2567 15.5223 19.2487 15.5224C17.0675 15.5436 15.6339 15.5932 14.9479 15.671C13.8185 15.7992 12.0191 16.152 13.56 16.799C15.101 17.4461 15.4364 18.0573 14.9479 18.5259C14.5732 18.8854 13.4626 19.1707 12.7182 19.2841C12.7134 19.2848 12.7086 19.2855 12.7037 19.2862L12.7037 19.2862C12.6528 19.2938 12.6054 19.2586 12.5979 19.2077C12.5922 19.1689 12.6113 19.1307 12.6457 19.112C13.7372 18.5202 13.3464 18.0616 12.3904 17.8191C11.3164 17.5467 9.18537 17.4946 8.25359 17.2761C7.32182 17.0575 8.36708 16.346 9.44545 16.1498C10.5238 15.9536 9.07298 15.5169 7.98918 15.5169H4.77602C4.72112 15.5169 4.67661 15.4724 4.67661 15.4174C4.67661 15.3706 4.70928 15.3301 4.75505 15.3202L6.33978 14.978C6.32228 14.7938 6.31332 14.6071 6.31332 14.4184Z" fill="#697784"/>
</svg>
