
<svg width="24" height="24" viewBox="0 0 24 24" fill="none" xmlns="http://www.w3.org/2000/svg">
<path fill-rule="evenodd" clip-rule="evenodd" d="M11.5239 3.2854H12.606C12.6311 3.2854 12.6562 3.28787 12.6808 3.29279C12.8887 3.33423 13.0238 3.53686 12.9824 3.74536L12.5318 6.01857C12.4961 6.19869 12.3385 6.32843 12.1554 6.32843H11.9745C11.7914 6.32843 11.6338 6.19869 11.5981 6.01857L11.1475 3.74536C11.1061 3.53686 11.2412 3.33423 11.4491 3.29279C11.4737 3.28787 11.4988 3.2854 11.5239 3.2854Z" fill="#697784"/>
<path fill-rule="evenodd" clip-rule="evenodd" d="M11.5239 20.5701H12.606C12.6311 20.5701 12.6562 20.5677 12.6808 20.5627C12.8887 20.5213 13.0238 20.3187 12.9824 20.1102L12.5318 17.837C12.4961 17.6568 12.3385 17.5271 12.1554 17.5271H11.9745C11.7914 17.5271 11.6338 17.6568 11.5981 17.837L11.1475 20.1102C11.1061 20.3187 11.2412 20.5213 11.4491 20.5627C11.4737 20.5677 11.4988 20.5701 11.5239 20.5701Z" fill="#697784"/>
<path fill-rule="evenodd" clip-rule="evenodd" d="M3.45795 12.5228V11.4384C3.45795 11.4132 3.46042 11.3881 3.46532 11.3634C3.50667 11.155 3.70885 11.0197 3.9169 11.0611L6.18517 11.5127C6.3649 11.5485 6.49436 11.7064 6.49436 11.89V12.0712C6.49436 12.2547 6.3649 12.4127 6.18517 12.4485L3.9169 12.9001C3.70885 12.9415 3.50667 12.8062 3.46532 12.5978C3.46042 12.5731 3.45795 12.548 3.45795 12.5228Z" fill="#697784"/>
<path fill-rule="evenodd" clip-rule="evenodd" d="M20.705 12.5228V11.4384C20.705 11.4132 20.7025 11.3881 20.6976 11.3634C20.6563 11.155 20.4541 11.0197 20.246 11.0611L17.9778 11.5127C17.798 11.5485 17.6686 11.7064 17.6686 11.89V12.0712C17.6686 12.2547 17.798 12.4127 17.9778 12.4485L20.246 12.9001C20.4541 12.9415 20.6563 12.8062 20.6976 12.5978C20.7025 12.5731 20.705 12.548 20.705 12.5228Z" fill="#697784"/>
<path fill-rule="evenodd" clip-rule="evenodd" d="M5.58197 6.22997L6.3471 5.46317C6.36487 5.44536 6.38434 5.42935 6.40523 5.41536C6.58149 5.29733 6.81994 5.34491 6.93783 5.52163L8.22311 7.44835C8.32495 7.60102 8.30504 7.80446 8.17554 7.93423L8.04766 8.0624C7.91816 8.19217 7.71517 8.21213 7.56283 8.11007L5.64031 6.82198C5.46397 6.70384 5.4165 6.46486 5.53427 6.28822C5.54823 6.26728 5.5642 6.24777 5.58197 6.22997Z" fill="#697784"/>
<path fill-rule="evenodd" clip-rule="evenodd" d="M17.7775 18.4521L18.5426 17.6853C18.5604 17.6675 18.5764 17.648 18.5903 17.627C18.7081 17.4504 18.6606 17.2114 18.4843 17.0933L16.5618 15.8052C16.4094 15.7031 16.2064 15.7231 16.0769 15.8528L15.949 15.981C15.8195 16.1108 15.7996 16.3142 15.9015 16.4669L17.1868 18.3936C17.3046 18.5703 17.5431 18.6179 17.7194 18.4999C17.7402 18.4859 17.7597 18.4699 17.7775 18.4521Z" fill="#697784"/>
<path fill-rule="evenodd" clip-rule="evenodd" d="M17.803 5.41408L18.5682 6.18088C18.5859 6.19868 18.6019 6.21819 18.6159 6.23913C18.7336 6.41577 18.6862 6.65475 18.5098 6.77289L16.5873 8.06098C16.435 8.16304 16.232 8.14308 16.1025 8.01331L15.9746 7.88514C15.8451 7.75537 15.8252 7.55193 15.927 7.39926L17.2123 5.47254C17.3302 5.29582 17.5686 5.24824 17.7449 5.36627C17.7658 5.38026 17.7853 5.39627 17.803 5.41408Z" fill="#697784"/>
<path fill-rule="evenodd" clip-rule="evenodd" d="M5.60753 17.6362L6.37266 18.403C6.39043 18.4208 6.4099 18.4368 6.43079 18.4508C6.60705 18.5688 6.8455 18.5212 6.96338 18.3445L8.24867 16.4178C8.35051 16.2651 8.33059 16.0617 8.2011 15.9319L8.07321 15.8038C7.94372 15.674 7.74073 15.654 7.58839 15.7561L5.66586 17.0442C5.48953 17.1623 5.44205 17.4013 5.55983 17.5779C5.57378 17.5989 5.58976 17.6184 5.60753 17.6362Z" fill="#697784"/>
<path fill-rule="evenodd" clip-rule="evenodd" d="M8.26099 14.8327H13.1587C13.2583 14.8327 13.3391 14.7518 13.3391 14.652C13.3391 14.546 13.2666 14.4538 13.1638 14.429L11.4723 14.0205C11.5058 13.9123 11.5238 13.7973 11.5238 13.678C11.5238 13.0402 11.0083 12.5233 10.3724 12.5233C10.0486 12.5233 9.75606 12.6572 9.54686 12.8729C9.36452 12.2268 8.7721 11.7534 8.06943 11.7534C7.7898 11.7534 7.52762 11.8284 7.30181 11.9594C7.30179 11.9549 7.30179 11.9504 7.30179 11.9459C7.30179 9.28865 9.44982 7.13452 12.0995 7.13452C13.7265 7.13452 15.1642 7.9466 16.0318 9.1886C15.8791 9.36014 15.764 9.5662 15.6998 9.79367C15.4906 9.57797 15.1981 9.44398 14.8743 9.44398C14.2384 9.44398 13.7229 9.96097 13.7229 10.5987C13.7229 10.718 13.7409 10.833 13.7744 10.9413L12.0829 11.3497C11.9801 11.3745 11.9076 11.4667 11.9076 11.5727C11.9076 11.6725 11.9884 11.7534 12.088 11.7534H16.8935C16.896 11.8173 16.8973 11.8814 16.8973 11.9459C16.8973 14.6031 14.7493 16.7573 12.0995 16.7573C10.5299 16.7573 9.1363 16.0013 8.26099 14.8327Z" fill="#697784"/>
</svg>
