<svg width="24" height="24" viewBox="0 0 24 24" fill="none" xmlns="http://www.w3.org/2000/svg">
<path fill-rule="evenodd" clip-rule="evenodd" d="M11.5436 3.375H12.6402C12.6657 3.375 12.6911 3.3775 12.7161 3.38247C12.9268 3.42438 13.0636 3.62928 13.0218 3.84012L12.5651 6.13888C12.5289 6.32103 12.3692 6.45222 12.1836 6.45222H12.0003C11.8147 6.45222 11.655 6.32103 11.6188 6.13888L11.1621 3.84012C11.1202 3.62928 11.2571 3.42438 11.4678 3.38247C11.4928 3.3775 11.5182 3.375 11.5436 3.375Z" fill="#697784"/>
<path fill-rule="evenodd" clip-rule="evenodd" d="M11.5436 20.8539H12.6402C12.6657 20.8539 12.6911 20.8514 12.7161 20.8464C12.9268 20.8045 13.0636 20.5996 13.0218 20.3888L12.5651 18.09C12.5289 17.9079 12.3692 17.7767 12.1836 17.7767H12.0003C11.8147 17.7767 11.655 17.9079 11.6188 18.09L11.1621 20.3888C11.1202 20.5996 11.2571 20.8045 11.4678 20.8464C11.4928 20.8514 11.5182 20.8539 11.5436 20.8539Z" fill="#697784"/>
<path fill-rule="evenodd" clip-rule="evenodd" d="M3.36928 12.7162V11.6196C3.36928 11.5941 3.37178 11.5687 3.37675 11.5437C3.41866 11.333 3.62356 11.1962 3.8344 11.238L6.13315 11.6947C6.3153 11.7309 6.4465 11.8906 6.4465 12.0762V12.2595C6.4465 12.4451 6.3153 12.6048 6.13315 12.641L3.8344 13.0977C3.62356 13.1396 3.41866 13.0027 3.37675 12.792C3.37178 12.767 3.36928 12.7416 3.36928 12.7162Z" fill="#697784"/>
<path fill-rule="evenodd" clip-rule="evenodd" d="M20.8482 12.7162V11.6196C20.8482 11.5941 20.8457 11.5687 20.8407 11.5437C20.7988 11.333 20.5939 11.1962 20.3831 11.238L18.0843 11.6947C17.9021 11.7309 17.771 11.8906 17.771 12.0762V12.2595C17.771 12.4451 17.9021 12.6048 18.0843 12.641L20.3831 13.0977C20.5939 13.1396 20.7988 13.0027 20.8407 12.792C20.8457 12.767 20.8482 12.7416 20.8482 12.7162Z" fill="#697784"/>
<path fill-rule="evenodd" clip-rule="evenodd" d="M5.52185 6.35258L6.29727 5.57717C6.31528 5.55916 6.33501 5.54297 6.35618 5.52882C6.53481 5.40947 6.77646 5.45758 6.89593 5.63628L8.19849 7.58465C8.30171 7.73904 8.28152 7.94476 8.15029 8.07599L8.02068 8.2056C7.88945 8.33683 7.68373 8.35702 7.52934 8.2538L5.58097 6.95125C5.40227 6.83177 5.35415 6.59012 5.47351 6.41149C5.48766 6.39032 5.50385 6.37059 5.52185 6.35258Z" fill="#697784"/>
<path fill-rule="evenodd" clip-rule="evenodd" d="M17.8813 18.712L18.6567 17.9366C18.6747 17.9186 18.6909 17.8989 18.705 17.8777C18.8244 17.6991 18.7763 17.4574 18.5976 17.3379L16.6492 16.0354C16.4948 15.9322 16.2891 15.9523 16.1579 16.0836L16.0283 16.2132C15.897 16.3444 15.8769 16.5501 15.9801 16.7045L17.2826 18.6529C17.4021 18.8316 17.6438 18.8797 17.8224 18.7604C17.8436 18.7462 17.8633 18.73 17.8813 18.712Z" fill="#697784"/>
<path fill-rule="evenodd" clip-rule="evenodd" d="M17.9072 5.52761L18.6826 6.30302C18.7006 6.32103 18.7168 6.34076 18.731 6.36193C18.8503 6.54056 18.8022 6.78221 18.6235 6.90169L16.6751 8.20425C16.5208 8.30746 16.315 8.28727 16.1838 8.15604L16.0542 8.02643C15.923 7.8952 15.9028 7.68948 16.006 7.53509L17.3086 5.58672C17.428 5.40802 17.6697 5.35991 17.8483 5.47926C17.8695 5.49341 17.8892 5.5096 17.9072 5.52761Z" fill="#697784"/>
<path fill-rule="evenodd" clip-rule="evenodd" d="M5.54778 17.887L6.3232 18.6625C6.3412 18.6805 6.36093 18.6967 6.3821 18.7108C6.56073 18.8302 6.80239 18.782 6.92186 18.6033L8.22442 16.655C8.32763 16.5006 8.30745 16.2949 8.17622 16.1636L8.04661 16.034C7.91538 15.9028 7.70965 15.8826 7.55527 15.9858L5.6069 17.2884C5.42819 17.4079 5.38008 17.6495 5.49943 17.8281C5.51358 17.8493 5.52977 17.869 5.54778 17.887Z" fill="#697784"/>
<path d="M12.127 16.9982C14.8124 16.9982 16.9893 14.8199 16.9893 12.1328C16.9893 9.44566 14.8124 7.26733 12.127 7.26733C9.44169 7.26733 7.26479 9.44566 7.26479 12.1328C7.26479 14.8199 9.44169 16.9982 12.127 16.9982Z" fill="#697784"/>
</svg>
