<svg width="24" height="24" viewBox="0 0 24 24" fill="none" xmlns="http://www.w3.org/2000/svg">
<path fill-rule="evenodd" clip-rule="evenodd" d="M8.33466 10.7923L7.25673 9.33767C7.21541 9.28192 7.22709 9.20321 7.2828 9.16187C7.32723 9.12891 7.38798 9.12891 7.4324 9.16187L8.88609 10.2405C9.02096 10.0295 9.1135 9.78855 9.15195 9.52931L9.56481 6.74586C9.57952 6.6467 9.67178 6.57824 9.77088 6.59296C9.8499 6.6047 9.91195 6.66679 9.92368 6.74586L10.3365 9.52931C10.375 9.78855 10.4675 10.0295 10.6024 10.2405L12.0561 9.16187C12.1118 9.12053 12.1905 9.13221 12.2318 9.18796C12.2647 9.23242 12.2647 9.29321 12.2318 9.33767L11.1538 10.7923C11.3647 10.9273 11.6055 11.0199 11.8646 11.0583L14.6462 11.4715C14.7453 11.4862 14.8137 11.5785 14.799 11.6777C14.7873 11.7567 14.7252 11.8188 14.6462 11.8306L11.8646 12.2437C11.6055 12.2822 11.3647 12.3748 11.1538 12.5097L12.2318 13.9644C12.2731 14.0201 12.2614 14.0988 12.2057 14.1402C12.1613 14.1731 12.1005 14.1731 12.0561 14.1402L10.6024 13.0615C10.4675 13.2725 10.375 13.5135 10.3365 13.7727L9.92368 16.5562C9.90897 16.6553 9.81671 16.7238 9.71761 16.7091C9.63859 16.6973 9.57654 16.6352 9.56481 16.5562L9.15195 13.7727C9.1135 13.5135 9.02096 13.2725 8.88609 13.0615L7.4324 14.1402C7.37669 14.1815 7.29804 14.1698 7.25673 14.1141C7.22378 14.0696 7.22378 14.0088 7.25673 13.9644L8.33466 12.5097C8.12383 12.3748 7.883 12.2822 7.62392 12.2437L4.84229 11.8306C4.74319 11.8158 4.67478 11.7235 4.68949 11.6244C4.70122 11.5453 4.76327 11.4832 4.84229 11.4715L7.62392 11.0583C7.883 11.0199 8.12383 10.9273 8.33466 10.7923ZM13.4334 16.2061L12.1496 16.0155C12.1038 16.0087 12.0723 15.9661 12.079 15.9203C12.0845 15.8838 12.1131 15.8551 12.1496 15.8497L13.4334 15.659C13.7981 15.6049 14.0845 15.3183 14.1386 14.9533L14.3292 13.6687C14.336 13.6229 14.3786 13.5913 14.4243 13.5981C14.4608 13.6035 14.4894 13.6322 14.4948 13.6687L14.6854 14.9533C14.7395 15.3183 15.0259 15.6049 15.3906 15.659L16.6744 15.8497C16.7202 15.8565 16.7518 15.8991 16.745 15.9449C16.7396 15.9814 16.7109 16.01 16.6744 16.0155L15.3906 16.2061C15.0259 16.2603 14.7395 16.5469 14.6854 16.9118L14.4948 18.1965C14.488 18.2423 14.4455 18.2739 14.3997 18.2671C14.3632 18.2617 14.3346 18.233 14.3292 18.1965L14.1386 16.9118C14.0845 16.5469 13.7981 16.2603 13.4334 16.2061ZM17.2604 7.5518L16.4045 7.42468C16.374 7.42016 16.353 7.39175 16.3575 7.36124C16.3611 7.33691 16.3802 7.3178 16.4045 7.31419L17.2604 7.18707C17.5036 7.15096 17.6945 6.95992 17.7306 6.7166L17.8576 5.86016C17.8621 5.82965 17.8905 5.80858 17.921 5.81311C17.9453 5.81672 17.9644 5.83583 17.968 5.86016L18.0951 6.7166C18.1312 6.95992 18.3221 7.15096 18.5652 7.18707L19.4211 7.31419C19.4516 7.31872 19.4727 7.34713 19.4681 7.37764C19.4645 7.40197 19.4454 7.42107 19.4211 7.42468L18.5652 7.5518C18.3221 7.58791 18.1312 7.77896 18.0951 8.02227L17.968 8.87871C17.9635 8.90923 17.9351 8.93029 17.9046 8.92576C17.8803 8.92215 17.8612 8.90305 17.8576 8.87871L17.7306 8.02227C17.6945 7.77896 17.5036 7.58791 17.2604 7.5518Z" fill="#697784"/>
</svg>
