<svg width="24" height="24" viewBox="0 0 24 24" fill="none" xmlns="http://www.w3.org/2000/svg">
<path fill-rule="evenodd" clip-rule="evenodd" d="M6.47962 15.584C6.99515 12.9015 9.35466 10.875 12.1875 10.875C15.0226 10.875 17.3835 12.9047 17.8966 15.5903C17.9205 15.5935 17.9441 15.5966 17.9673 15.5997C18.5352 15.6996 18.985 15.7938 19.3165 15.8825C19.379 15.8992 19.4161 15.9635 19.3994 16.0261C19.3858 16.077 19.3399 16.1126 19.2873 16.1131C19.2789 16.1132 19.2707 16.1132 19.2627 16.1133C17.0815 16.1346 15.6479 16.1842 14.9619 16.262C13.8324 16.3902 12.0331 16.7429 13.574 17.39C15.115 18.0371 15.4504 18.6482 14.9619 19.1169C14.5872 19.4764 13.4766 19.7617 12.7321 19.875C12.7274 19.8758 12.7225 19.8765 12.7177 19.8772C12.6668 19.8848 12.6194 19.8496 12.6119 19.7986C12.6061 19.7599 12.6252 19.7217 12.6597 19.703C13.7512 19.1112 13.3603 18.6526 12.4044 18.4101C11.3304 18.1376 9.19935 18.0856 8.26758 17.867C7.3358 17.6485 8.38106 16.9369 9.45943 16.7407C10.5378 16.5445 9.08696 16.1079 8.00316 16.1079H4.79001C4.7351 16.1079 4.69059 16.0634 4.69059 16.0084C4.69059 15.9616 4.72326 15.9211 4.76903 15.9112C5.27746 15.7766 5.68455 15.6886 5.9903 15.6474C6.15462 15.6253 6.31773 15.6041 6.47962 15.584ZM3.34102 6.62854L2.48513 6.50142C2.45464 6.49689 2.43359 6.46848 2.43811 6.43797C2.44172 6.41364 2.46081 6.39454 2.48513 6.39092L3.34102 6.26381C3.58417 6.22769 3.77509 6.03665 3.81118 5.79334L3.93821 4.93689C3.94274 4.90638 3.97112 4.88532 4.00162 4.88985C4.02593 4.89346 4.04502 4.91256 4.04863 4.93689L4.17567 5.79334C4.21176 6.03665 4.40267 6.22769 4.64583 6.26381L5.50172 6.39092C5.53221 6.39545 5.55326 6.42386 5.54873 6.45437C5.54512 6.4787 5.52603 6.49781 5.50172 6.50142L4.64583 6.62854C4.40267 6.66465 4.21176 6.85569 4.17567 7.099L4.04863 7.95545C4.04411 7.98596 4.01572 8.00702 3.98523 8.0025C3.96091 7.99888 3.94182 7.97978 3.93821 7.95545L3.81118 7.099C3.77509 6.85569 3.58417 6.66465 3.34102 6.62854ZM8.88926 7.43215L8.46132 7.36859C8.44607 7.36633 8.43554 7.35212 8.43781 7.33687C8.43961 7.3247 8.44916 7.31515 8.46132 7.31335L8.88926 7.24979C9.01084 7.23173 9.10629 7.13621 9.12434 7.01455L9.18786 6.58633C9.19012 6.57107 9.20431 6.56054 9.21956 6.56281C9.23172 6.56461 9.24126 6.57416 9.24307 6.58633L9.30658 7.01455C9.32463 7.13621 9.42009 7.23173 9.54167 7.24979L9.96961 7.31335C9.98485 7.31561 9.99538 7.32981 9.99312 7.34507C9.99131 7.35723 9.98177 7.36679 9.96961 7.36859L9.54167 7.43215C9.42009 7.45021 9.32463 7.54573 9.30658 7.66739L9.24307 8.09561C9.2408 8.11086 9.22661 8.1214 9.21136 8.11913C9.19921 8.11733 9.18966 8.10777 9.18786 8.09561L9.12434 7.66739C9.10629 7.54573 9.01084 7.45021 8.88926 7.43215ZM17.3945 5.58706L16.8595 5.50762C16.8405 5.50478 16.8273 5.48703 16.8302 5.46796C16.8324 5.45275 16.8443 5.44081 16.8595 5.43856L17.3945 5.35911C17.5464 5.33654 17.6658 5.21714 17.6883 5.06507L17.7677 4.52979C17.7706 4.51072 17.7883 4.49755 17.8074 4.50038C17.8225 4.50264 17.8345 4.51458 17.8367 4.52979L17.9161 5.06507C17.9387 5.21714 18.058 5.33654 18.21 5.35911L18.7449 5.43856C18.764 5.44139 18.7771 5.45914 18.7743 5.47821C18.772 5.49342 18.7601 5.50536 18.7449 5.50762L18.21 5.58706C18.058 5.60963 17.9387 5.72904 17.9161 5.88111L17.8367 6.41638C17.8339 6.43545 17.8162 6.44862 17.7971 6.44579C17.7819 6.44353 17.77 6.43159 17.7677 6.41638L17.6883 5.88111C17.6658 5.72904 17.5464 5.60963 17.3945 5.58706ZM19.0888 11.7147L18.7679 11.6671C18.7564 11.6654 18.7485 11.6547 18.7502 11.6433C18.7516 11.6342 18.7587 11.627 18.7679 11.6256L19.0888 11.578C19.18 11.5644 19.2516 11.4928 19.2651 11.4015L19.3128 11.0804C19.3145 11.0689 19.3251 11.061 19.3365 11.0627C19.3457 11.0641 19.3528 11.0712 19.3542 11.0804L19.4018 11.4015C19.4153 11.4928 19.4869 11.5644 19.5781 11.578L19.8991 11.6256C19.9105 11.6273 19.9184 11.638 19.9167 11.6494C19.9154 11.6586 19.9082 11.6657 19.8991 11.6671L19.5781 11.7147C19.4869 11.7283 19.4153 11.7999 19.4018 11.8912L19.3542 12.2123C19.3525 12.2238 19.3418 12.2317 19.3304 12.23C19.3213 12.2286 19.3141 12.2215 19.3128 12.2123L19.2651 11.8912C19.2516 11.7999 19.18 11.7283 19.0888 11.7147ZM11.6378 6.75H12.7344C12.7599 6.75 12.7853 6.7525 12.8103 6.75747C13.021 6.79938 13.1578 7.00428 13.1159 7.21512L12.6593 9.51388C12.6231 9.69603 12.4633 9.82722 12.2778 9.82722H12.0945C11.9089 9.82722 11.7491 9.69603 11.7129 9.51388L11.2563 7.21512C11.2144 7.00428 11.3513 6.79938 11.562 6.75747C11.5869 6.7525 11.6123 6.75 11.6378 6.75ZM2.82648 14.5219V13.4246C2.82648 13.3991 2.82898 13.3737 2.83395 13.3487C2.87583 13.1379 3.08059 13.0009 3.2913 13.0428L5.58856 13.4998C5.77058 13.536 5.9017 13.6959 5.9017 13.8816V14.065C5.9017 14.2507 5.77058 14.4105 5.58856 14.4467L3.2913 14.9037C3.08059 14.9456 2.87583 14.8087 2.83395 14.5978C2.82898 14.5728 2.82648 14.5474 2.82648 14.5219ZM21.4609 14.5219C21.4609 14.5474 21.4584 14.5728 21.4534 14.5978C21.4116 14.8087 21.2068 14.9456 20.9961 14.9037L18.6988 14.4467C18.5168 14.4105 18.3857 14.2507 18.3857 14.065V13.8816C18.3857 13.6959 18.5168 13.536 18.6988 13.4998L20.9961 13.0428C21.2068 13.0009 21.4116 13.1379 21.4534 13.3487C21.4584 13.3737 21.4609 13.3991 21.4609 13.4246V14.5219ZM18.6754 9.38093C18.6934 9.39894 18.7096 9.41868 18.7238 9.43987C18.8431 9.61859 18.7951 9.86031 18.6165 9.97977L16.6692 11.2821C16.5149 11.3853 16.3092 11.3651 16.178 11.2337L16.0484 11.104C15.9172 10.9727 15.8969 10.7669 16 10.6125L17.3015 8.66395C17.4209 8.48522 17.6625 8.43717 17.8411 8.55662C17.8623 8.57078 17.882 8.58699 17.9 8.605L18.6754 9.38093ZM5.61199 9.38093L6.38741 8.605C6.40541 8.58699 6.42514 8.57078 6.44631 8.55662C6.62492 8.43717 6.86648 8.48522 6.98586 8.66395L8.28736 10.6125C8.39048 10.7669 8.37024 10.9727 8.23901 11.104L8.1094 11.2337C7.97817 11.3651 7.7725 11.3853 7.6182 11.2821L5.67089 9.97977C5.49229 9.86031 5.44427 9.61859 5.56364 9.43987C5.57779 9.41868 5.59398 9.39894 5.61199 9.38093Z" fill="#697784"/>
</svg>
