
<svg width="24" height="24" viewBox="0 0 24 24" fill="none" xmlns="http://www.w3.org/2000/svg">
<path fill-rule="evenodd" clip-rule="evenodd" d="M9.28319 18.3295C10.1039 15.6437 12.9973 13.6593 16.4408 13.6593C18.287 13.6593 19.975 14.2297 21.2703 15.1728C21.2808 15.1804 21.2917 15.1884 21.3029 15.1968L21.3029 15.1968C21.3496 15.2316 21.3593 15.2977 21.3245 15.3445C21.2976 15.3807 21.2505 15.3957 21.2076 15.3819C20.0998 15.0244 18.8837 14.827 17.6077 14.827C14.1415 14.827 11.1165 16.2841 9.50611 18.4475C9.46402 18.5041 9.38411 18.5158 9.32761 18.4737C9.28447 18.4415 9.26612 18.3857 9.28174 18.3342C9.28224 18.3326 9.28271 18.3311 9.28319 18.3295Z" fill="#697784"/>
<path fill-rule="evenodd" clip-rule="evenodd" d="M7.95383 14.61C6.83058 14.4919 5.73775 14.5325 4.71156 14.7096C4.68367 14.7144 4.65418 14.7197 4.62309 14.7255C4.53868 14.7414 4.45738 14.6859 4.4415 14.6015C4.42901 14.5351 4.46074 14.4683 4.52004 14.4361C4.55144 14.419 4.58124 14.4033 4.60944 14.3888C5.93649 13.7104 7.54499 13.3929 9.23636 13.5707C10.7479 13.7297 12.1124 14.2619 13.2113 15.044L11.9088 15.7415C10.7377 15.1598 9.39762 14.7618 7.95383 14.61Z" fill="#697784"/>
<path fill-rule="evenodd" clip-rule="evenodd" d="M6.34708 14.1565C6.58854 11.2622 9.01268 8.98846 11.9675 8.98846C15.0013 8.98846 17.4756 11.3852 17.6026 14.3897L15.2095 14.2071L12.3986 15.2122L8.81351 13.9725L6.34708 14.1565Z" fill="#697784"/>
<path fill-rule="evenodd" clip-rule="evenodd" d="M11.4265 5.25H12.5231C12.5486 5.25 12.574 5.2525 12.599 5.25747C12.8097 5.29938 12.9465 5.50428 12.9046 5.71512L12.448 8.01388C12.4118 8.19603 12.2521 8.32722 12.0665 8.32722H11.8832C11.6976 8.32722 11.5378 8.19603 11.5017 8.01388L11.045 5.71512C11.0031 5.50428 11.14 5.29938 11.3507 5.25747C11.3757 5.2525 11.4011 5.25 11.4265 5.25Z" fill="#697784"/>
<path fill-rule="evenodd" clip-rule="evenodd" d="M2.6152 13.0219V11.9246C2.6152 11.8991 2.6177 11.8737 2.62267 11.8487C2.66455 11.6378 2.86932 11.5009 3.08002 11.5428L5.37728 11.9998C5.55931 12.036 5.69042 12.1958 5.69042 12.3815V12.5649C5.69042 12.7506 5.55931 12.9105 5.37728 12.9467L3.08002 13.4036C2.86932 13.4456 2.66455 13.3086 2.62267 13.0978C2.6177 13.0728 2.6152 13.0474 2.6152 13.0219Z" fill="#697784"/>
<path fill-rule="evenodd" clip-rule="evenodd" d="M21.2496 13.0219V11.9246C21.2496 11.8991 21.2471 11.8737 21.2422 11.8487C21.2003 11.6378 20.9955 11.5009 20.7848 11.5428L18.4876 11.9998C18.3055 12.036 18.1744 12.1958 18.1744 12.3815V12.5649C18.1744 12.7506 18.3055 12.9105 18.4876 12.9467L20.7848 13.4036C20.9955 13.4456 21.2003 13.3086 21.2422 13.0978C21.2471 13.0728 21.2496 13.0474 21.2496 13.0219Z" fill="#697784"/>
<path fill-rule="evenodd" clip-rule="evenodd" d="M18.4641 7.88092L17.6887 7.10499C17.6707 7.08698 17.651 7.07077 17.6298 7.05661C17.4512 6.93716 17.2096 6.98521 17.0902 7.16393L15.7888 9.11251C15.6856 9.26692 15.7059 9.47271 15.8371 9.60403L15.9667 9.73372C16.0979 9.86504 16.3036 9.8853 16.4579 9.7821L18.4052 8.47975C18.5838 8.3603 18.6318 8.11858 18.5125 7.93986C18.4983 7.91867 18.4821 7.89893 18.4641 7.88092Z" fill="#697784"/>
<path fill-rule="evenodd" clip-rule="evenodd" d="M5.4007 7.88092L6.17611 7.10499C6.19412 7.08698 6.21385 7.07077 6.23502 7.05661C6.41363 6.93716 6.65519 6.98521 6.77456 7.16394L8.07606 9.11252C8.17919 9.26692 8.15895 9.47271 8.02771 9.60403L7.89811 9.73372C7.76687 9.86504 7.56121 9.8853 7.40691 9.7821L5.4596 8.47975C5.28099 8.3603 5.23297 8.11858 5.35235 7.93986C5.3665 7.91867 5.38269 7.89893 5.4007 7.88092Z" fill="#697784"/>
</svg>
