
<svg width="24" height="24" viewBox="0 0 24 24" fill="none" xmlns="http://www.w3.org/2000/svg">
<path fill-rule="evenodd" clip-rule="evenodd" d="M10.9865 5.81858C9.95983 6.83108 9.32314 8.24009 9.32314 9.79823C9.32314 12.8806 11.8149 15.3794 14.8885 15.3794C15.9397 15.3794 16.9228 15.0872 17.7615 14.5793C17.7786 14.5689 17.7961 14.558 17.814 14.5466C17.9424 14.4649 18.1126 14.503 18.1941 14.6318C18.2533 14.7253 18.2511 14.8453 18.1884 14.9365C17.0464 16.599 15.1348 17.6889 12.9694 17.6889C9.47179 17.6889 6.63639 14.8454 6.63639 11.3379C6.63639 8.60818 8.35363 6.2807 10.7638 5.38263C10.8901 5.33558 11.0305 5.40009 11.0774 5.52672C11.1114 5.6184 11.0876 5.72155 11.017 5.78901C11.0065 5.79903 10.9964 5.80889 10.9865 5.81858Z" fill="#697784"/>
<path fill-rule="evenodd" clip-rule="evenodd" d="M14.9341 8.49046L14.3456 8.40286C14.3246 8.39974 14.3101 8.38016 14.3132 8.35914C14.3157 8.34237 14.3289 8.3292 14.3456 8.32671L14.9341 8.23911C15.1013 8.21422 15.2326 8.08256 15.2574 7.91488L15.3448 7.32465C15.3479 7.30363 15.3674 7.28911 15.3884 7.29223C15.4051 7.29472 15.4182 7.30789 15.4207 7.32465L15.5081 7.91488C15.5329 8.08256 15.6642 8.21422 15.8314 8.23911L16.42 8.32671C16.4409 8.32983 16.4554 8.34941 16.4523 8.37044C16.4498 8.38721 16.4367 8.40037 16.42 8.40286L15.8314 8.49046C15.6642 8.51535 15.5329 8.64701 15.5081 8.81469L15.4207 9.40492C15.4176 9.42595 15.3981 9.44046 15.3771 9.43734C15.3604 9.43485 15.3473 9.42169 15.3448 9.40492L15.2574 8.81469C15.2326 8.64701 15.1013 8.51535 14.9341 8.49046Z" fill="#697784"/>
<path fill-rule="evenodd" clip-rule="evenodd" d="M7.08216 5.07251L6.65989 5.00966C6.64485 5.00742 6.63446 4.99338 6.63669 4.97829C6.63848 4.96626 6.64789 4.95681 6.65989 4.95503L7.08216 4.89217C7.20212 4.87432 7.29631 4.77986 7.31412 4.65955L7.37679 4.23609C7.37903 4.221 7.39303 4.21059 7.40807 4.21283C7.42007 4.21461 7.42949 4.22406 7.43127 4.23609L7.49395 4.65955C7.51175 4.77986 7.60594 4.87432 7.72591 4.89217L8.14817 4.95503C8.16322 4.95727 8.1736 4.97131 8.17137 4.9864C8.16959 4.99843 8.16017 5.00787 8.14817 5.00966L7.72591 5.07251C7.60594 5.09037 7.51175 5.18483 7.49395 5.30513L7.43127 5.7286C7.42904 5.74368 7.41503 5.7541 7.39999 5.75186C7.38799 5.75007 7.37857 5.74063 7.37679 5.7286L7.31412 5.30513C7.29631 5.18483 7.20212 5.09037 7.08216 5.07251Z" fill="#697784"/>
<path fill-rule="evenodd" clip-rule="evenodd" d="M6.5374 17.4347L5.904 17.3404C5.88143 17.3371 5.86585 17.316 5.8692 17.2934C5.87187 17.2753 5.886 17.2611 5.904 17.2585L6.5374 17.1642C6.71734 17.1374 6.85863 16.9957 6.88534 16.8153L6.97935 16.1801C6.9827 16.1574 7.00371 16.1418 7.02628 16.1452C7.04427 16.1478 7.0584 16.162 7.06107 16.1801L7.15508 16.8153C7.18179 16.9957 7.32308 17.1374 7.50303 17.1642L8.13643 17.2585C8.15899 17.2618 8.17457 17.2829 8.17122 17.3055C8.16855 17.3236 8.15442 17.3377 8.13643 17.3404L7.50303 17.4347C7.32308 17.4615 7.18179 17.6032 7.15508 17.7836L7.06107 18.4188C7.05772 18.4415 7.03671 18.4571 7.01415 18.4537C6.99615 18.451 6.98202 18.4369 6.97935 18.4188L6.88534 17.7836C6.85863 17.6032 6.71734 17.4615 6.5374 17.4347Z" fill="#697784"/>
<path fill-rule="evenodd" clip-rule="evenodd" d="M12.2474 12.7244L11.6588 12.6368C11.6379 12.6337 11.6234 12.6141 11.6265 12.5931C11.629 12.5763 11.6421 12.5631 11.6588 12.5607L12.2474 12.4731C12.4146 12.4482 12.5459 12.3165 12.5707 12.1488L12.6581 11.5586C12.6612 11.5376 12.6807 11.5231 12.7017 11.5262C12.7184 11.5287 12.7315 11.5418 12.734 11.5586L12.8213 12.1488C12.8462 12.3165 12.9774 12.4482 13.1447 12.4731L13.7332 12.5607C13.7542 12.5638 13.7687 12.5834 13.7655 12.6044C13.7631 12.6212 13.7499 12.6343 13.7332 12.6368L13.1447 12.7244C12.9774 12.7493 12.8462 12.881 12.8213 13.0486L12.734 13.6389C12.7309 13.6599 12.7114 13.6744 12.6904 13.6713C12.6737 13.6688 12.6605 13.6556 12.6581 13.6389L12.5707 13.0486C12.5459 12.881 12.4146 12.7493 12.2474 12.7244Z" fill="#697784"/>
<path fill-rule="evenodd" clip-rule="evenodd" d="M17.0615 12.3857L16.6392 12.3229C16.6242 12.3207 16.6138 12.3066 16.616 12.2915C16.6178 12.2795 16.6272 12.27 16.6392 12.2683L17.0615 12.2054C17.1815 12.1876 17.2756 12.0931 17.2935 11.9728L17.3561 11.5493C17.3584 11.5342 17.3724 11.5238 17.3874 11.5261C17.3994 11.5278 17.4088 11.5373 17.4106 11.5493L17.4733 11.9728C17.4911 12.0931 17.5853 12.1876 17.7052 12.2054L18.1275 12.2683C18.1426 12.2705 18.1529 12.2845 18.1507 12.2996C18.1489 12.3117 18.1395 12.3211 18.1275 12.3229L17.7052 12.3857C17.5853 12.4036 17.4911 12.4981 17.4733 12.6184L17.4106 13.0418C17.4084 13.0569 17.3944 13.0673 17.3793 13.0651C17.3673 13.0633 17.3579 13.0539 17.3561 13.0418L17.2935 12.6184C17.2756 12.4981 17.1815 12.4036 17.0615 12.3857Z" fill="#697784"/>
</svg>
