<svg id="Layer_1" data-name="Layer 1" xmlns="http://www.w3.org/2000/svg" xmlns:xlink="http://www.w3.org/1999/xlink" viewBox="0 0 809.15 284.9"><defs><style>.cls-1{fill:#07a34d;}.cls-2{fill:url(#linear-gradient);}.cls-3{fill:url(#linear-gradient-2);}.cls-4{fill:url(#linear-gradient-3);}.cls-5{fill:url(#linear-gradient-4);}.cls-6{fill:url(#linear-gradient-5);}.cls-7{fill:url(#linear-gradient-6);}.cls-8{fill:#1d0e0e;opacity:0.2;isolation:isolate;}.cls-9{fill:url(#linear-gradient-7);}.cls-10{fill:url(#linear-gradient-8);}.cls-11{fill:url(#linear-gradient-9);}.cls-12{fill:url(#linear-gradient-10);}</style><linearGradient id="linear-gradient" x1="-2072.8" y1="973.53" x2="-2072.07" y2="973.06" gradientTransform="matrix(178.2, 0, 0, -202.29, 369445.3, 197034.16)" gradientUnits="userSpaceOnUse"><stop offset="0" stop-color="#881d00"/><stop offset="0.4" stop-color="#d25500"/><stop offset="1" stop-color="#ffb900"/></linearGradient><linearGradient id="linear-gradient-2" x1="-2069.13" y1="972.43" x2="-2069.86" y2="973.12" gradientTransform="matrix(138.18, 0, 0, -177.18, 286043.08, 172442.03)" gradientUnits="userSpaceOnUse"><stop offset="0" stop-color="#871d00"/><stop offset="0.49" stop-color="#dd5900"/><stop offset="1" stop-color="#ffb900"/></linearGradient><linearGradient id="linear-gradient-3" x1="-2063.82" y1="967.17" x2="-2065.23" y2="968.35" gradientTransform="matrix(103.43, 0, 0, -101.74, 213629.4, 98576.62)" gradientUnits="userSpaceOnUse"><stop offset="0" stop-color="#0bf072"/><stop offset="0.5" stop-color="#0e5a84"/><stop offset="1" stop-color="#082851"/></linearGradient><linearGradient id="linear-gradient-4" x1="-2060.13" y1="968.06" x2="-2059.12" y2="967.07" gradientTransform="matrix(83.56, 0, 0, -101.48, 172219.83, 98325.25)" gradientUnits="userSpaceOnUse"><stop offset="0" stop-color="#0bf072"/><stop offset="0.5" stop-color="#0e5a84"/><stop offset="1" stop-color="#085d51"/></linearGradient><linearGradient id="linear-gradient-5" x1="-2064.5" y1="968.86" x2="-2064.08" y2="969.78" gradientTransform="matrix(102.62, 0, 0, -119.48, 211936.8, 115926.31)" gradientUnits="userSpaceOnUse"><stop offset="0" stop-color="#ff724c"/><stop offset="0.4" stop-color="#ffc8a2"/><stop offset="1" stop-color="#fff"/></linearGradient><linearGradient id="linear-gradient-6" x1="-2063.4" y1="968.29" x2="-2062.86" y2="969.2" gradientTransform="matrix(97.18, 0, 0, -111.47, 200591.09, 108085.28)" xlink:href="#linear-gradient-5"/><linearGradient id="linear-gradient-7" x1="-2069.46" y1="955.9" x2="-2070.57" y2="955.97" gradientTransform="matrix(145.96, 0, 0, -49.37, 302257.89, 47349.41)" xlink:href="#linear-gradient-5"/><linearGradient id="linear-gradient-8" x1="-2069.67" y1="952.19" x2="-2070.64" y2="952.26" gradientTransform="matrix(145.96, 0, 0, -42.54, 302258.32, 40660.55)" xlink:href="#linear-gradient-5"/><linearGradient id="linear-gradient-9" x1="-2056.05" y1="971.56" x2="-2055.81" y2="970.42" gradientTransform="matrix(71.9, 0, 0, -137.92, 147964.81, 134010.55)" xlink:href="#linear-gradient-5"/><linearGradient id="linear-gradient-10" x1="-2049.48" y1="971.02" x2="-2049.32" y2="970.13" gradientTransform="matrix(58.38, 0, 0, -133.98, 119803.87, 130148.42)" xlink:href="#linear-gradient-5"/></defs><title>logo_brand_tagline_1_color</title><path class="cls-1" d="M225.46,246.2V206.69h7.06v18.48h.25l15.77-18.48h8.13l-15.23,17.53,16.41,22h-8.6L236.41,229l-3.89,4.55v12.7Z"/><path class="cls-1" d="M291.71,237.52c-.88,5.48-6,9.26-12.85,9.26-8.7,0-14-5.73-14-15s5.31-15.22,13.69-15.22S292,222.3,292,231.12v2.21H271.69v.41c0,4.66,2.85,7.78,7.31,7.78,3.18,0,5.59-1.59,6.32-4Zm-20-8.68H285.3c-.14-4.1-2.77-7-6.68-7S272,224.79,271.75,228.84Z"/><path class="cls-1" d="M302.18,231.66c0-9.17,4.74-15,12.05-15a9.65,9.65,0,0,1,9,5.36h.16V206.69h6.82V246.2h-6.68v-4.95h-.11a9.88,9.88,0,0,1-9.17,5.42C306.92,246.67,302.18,240.89,302.18,231.66Zm7,0c0,5.78,2.71,9.39,7.11,9.39s7.12-3.64,7.12-9.39-2.82-9.39-7.12-9.39S309.17,225.94,309.17,231.69Z"/><path class="cls-1" d="M341.79,237.91c0-5.15,4-8.25,11-8.68l7.66-.44v-2.08c0-3-2.05-4.79-5.42-4.79s-5.28,1.56-5.72,4H343c.3-5.43,4.93-9.31,12.32-9.31,7.2,0,11.88,3.8,11.88,9.63v20h-6.57v-4.63h-.14a10.26,10.26,0,0,1-9,5.1C345.87,246.67,341.79,243.14,341.79,237.91Zm18.7-2.47v-2.22l-6.7.41c-3.29.22-5.18,1.7-5.18,4s2,3.89,4.93,3.89C357.4,241.52,360.49,239,360.49,235.44Z"/><path class="cls-1" d="M405.47,246.2H398.9v-5h-.14c-1.53,3.54-4.46,5.56-8.87,5.56-6.3,0-10.29-4.08-10.29-10.79V217.18h6.81v17.39c0,4.16,2,6.4,5.86,6.4s6.38-2.79,6.38-7V217.18h6.82Z"/><path class="cls-1" d="M418.25,206.69h6.81V246.2h-6.81Z"/><path class="cls-1" d="M436.74,237.91c0-5.15,4-8.25,11-8.68l7.67-.44v-2.08c0-3-2.05-4.79-5.42-4.79s-5.29,1.56-5.72,4H438c.3-5.43,4.93-9.31,12.32-9.31,7.2,0,11.88,3.8,11.88,9.63v20H455.6v-4.63h-.14a10.26,10.26,0,0,1-9,5.1C440.82,246.67,436.74,243.14,436.74,237.91Zm18.7-2.47v-2.22l-6.71.41c-3.29.22-5.18,1.7-5.18,4s2,3.89,4.93,3.89C452.34,241.52,455.44,239,455.44,235.44Z"/><path class="cls-1" d="M483.38,210.39v6.79h5.48v5.26h-5.48v15.08c0,2.38,1.1,3.48,3.51,3.48a13.44,13.44,0,0,0,1.94-.14v5.2a18.17,18.17,0,0,1-3.53.28c-6.27,0-8.73-2.22-8.73-7.86v-16h-4.16v-5.26h4.16v-6.79Z"/><path class="cls-1" d="M499,237.91c0-5.15,4-8.25,11-8.68l7.66-.44v-2.08c0-3-2-4.79-5.42-4.79s-5.28,1.56-5.72,4h-6.32c.3-5.43,4.93-9.31,12.32-9.31,7.2,0,11.88,3.8,11.88,9.63v20h-6.57v-4.63h-.14a10.26,10.26,0,0,1-9,5.1C503.06,246.67,499,243.14,499,237.91Zm18.69-2.47v-2.22l-6.7.41c-3.29.22-5.18,1.7-5.18,4s2,3.89,4.93,3.89C514.58,241.52,517.67,239,517.67,235.44Z"/><path class="cls-1" d="M536.91,217.18h6.55v5h.14c1.56-3.45,4.65-5.53,9.11-5.53,6.41,0,10,4.11,10,10.82V246.2h-6.82V228.82c0-4.11-1.91-6.41-5.8-6.41s-6.41,2.82-6.41,7V246.2h-6.82Z"/><path class="cls-1" d="M599.29,235.17c.52,3.64,4.08,5.83,9,5.83s8.08-2.36,8.08-5.64c0-2.85-2-4.6-7.12-5.67l-4.24-.87c-7.92-1.62-11.61-5.34-11.61-11.12,0-6.95,6.1-11.66,14.67-11.66,8.74,0,14.51,4.76,14.68,11.82H616c-.33-3.72-3.45-6-8-6s-7.5,2.08-7.5,5.39c0,2.68,2,4.41,6.9,5.45l4.27.87c8.32,1.73,11.8,5.07,11.8,10.93,0,7.55-5.94,12.32-15.44,12.32-9.15,0-15.2-4.47-15.53-11.69Z"/><path class="cls-1" d="M634,237.91c0-5.15,4-8.25,11-8.68l7.67-.44v-2.08c0-3-2-4.79-5.42-4.79s-5.29,1.56-5.72,4H635.2c.3-5.43,4.93-9.31,12.32-9.31,7.2,0,11.88,3.8,11.88,9.63v20h-6.57v-4.63h-.14a10.26,10.26,0,0,1-9,5.1C638.05,246.67,634,243.14,634,237.91Zm18.7-2.47v-2.22l-6.71.41c-3.29.22-5.18,1.7-5.18,4s2,3.89,4.93,3.89C649.57,241.52,652.67,239,652.67,235.44Z"/><path class="cls-1" d="M671.91,217.18h6.54v5h.14c1.56-3.45,4.65-5.53,9.11-5.53,6.41,0,10,4.11,10,10.82V246.2h-6.81V228.82c0-4.11-1.92-6.41-5.81-6.41s-6.4,2.82-6.4,7V246.2h-6.82Z"/><path class="cls-1" d="M718.93,210.39v6.79h5.48v5.26h-5.48v15.08c0,2.38,1.1,3.48,3.51,3.48a13.33,13.33,0,0,0,1.94-.14v5.2a18.17,18.17,0,0,1-3.53.28c-6.27,0-8.73-2.22-8.73-7.86v-16H708v-5.26h4.16v-6.79Z"/><path class="cls-1" d="M736.06,217.18h6.55v5.06h.13c1-3.53,3.53-5.55,7-5.55a9.67,9.67,0,0,1,2.13.27v6.16a8.63,8.63,0,0,0-2.76-.38c-3.87,0-6.19,2.49-6.19,6.57V246.2h-6.82Z"/><path class="cls-1" d="M762.17,209.1a3.74,3.74,0,1,1,3.72,3.7A3.7,3.7,0,0,1,762.17,209.1Zm.35,8.08h6.82v29h-6.82Z"/><g id="Group-2"><path id="Path" class="cls-2" d="M118.35,39.18l66.27,38.27a9.48,9.48,0,0,1,4.74,8.2v76.51a9.53,9.53,0,0,1-4.74,8.2l-66.27,38.25a9.46,9.46,0,0,1-9.47,0L42.62,170.36a9.5,9.5,0,0,1-4.74-8.2V85.65a9.49,9.49,0,0,1,4.74-8.21l66.26-38.25A9.53,9.53,0,0,1,118.35,39.18Z"/><path id="Path-2" data-name="Path" class="cls-3" d="M118.35,39.18l37,21.36q-23.23,86.7-81.24,128L42.62,170.36a9.5,9.5,0,0,1-4.74-8.2V85.65a9.49,9.49,0,0,1,4.74-8.21l66.26-38.25A9.53,9.53,0,0,1,118.35,39.18Z"/><path id="Fill-14-Copy" class="cls-4" d="M69.72,149.52a114.67,114.67,0,0,0,43.9,9.06,114,114,0,0,0,44-9.06,116,116,0,0,0-14.53-42.65c-7.59-13.14-17.86-25.82-29.67-34.77a122.54,122.54,0,0,0-30.54,34.77C75.3,120,71.58,134.83,69.72,149.52Z"/><path id="Path-3" data-name="Path" class="cls-5" d="M113.43,72.1c10.63,8.05,20,19.13,27.32,30.85Q127,134.76,106.91,158.36a116,116,0,0,1-37.19-8.84c1.86-14.69,5.58-29.5,13.17-42.65A122.54,122.54,0,0,1,113.43,72.1Z"/><path id="Path-4" data-name="Path" class="cls-6" d="M124.26,47.67l17.65,10.18a111.29,111.29,0,0,0-71.49,89.47l-.23,1.77v.14a101.27,101.27,0,0,1-15.5-7.94c-.06,0,.06-.09,0-.12a127.57,127.57,0,0,1,69.57-93.5Z"/><path id="Combined-Shape" class="cls-7" d="M124.26,47.67l13,7.51q-61.38,21-80.76,87.24c-.61-.36-1.22-.74-1.83-1.13-.06,0,.06-.09,0-.12a127.57,127.57,0,0,1,69.57-93.5Z"/><path id="Path-5" data-name="Path" class="cls-8" d="M71,143.61l0,.2c-.2,1.17-.38,2.34-.55,3.51l-.23,1.77v.14a101.27,101.27,0,0,1-15.5-7.94c-.06,0,.06-.09,0-.12q1-5.94,2.58-11.79A76.47,76.47,0,0,0,71,143.61Z"/><path id="Path-6" data-name="Path" class="cls-9" d="M42.27,152.79V132.43a113,113,0,0,0,69.81,25.51h1.54l1.78,0a112.14,112.14,0,0,0,47.25-11.35l1.56-.77L166.34,163l-1.7.75a128.36,128.36,0,0,1-49.12,10.68l-1.9,0h-1.7a129.26,129.26,0,0,1-69.65-21.6v0Z"/><path id="Path-7" data-name="Path" class="cls-10" d="M42.27,152.79V138.24q40.5,42.3,124,23.7l.12,1-1.7.75a128.36,128.36,0,0,1-49.12,10.68l-1.9,0h-1.7a129.28,129.28,0,0,1-68.25-20.68l-1.4-.92v0Z"/><path id="Path-8" data-name="Path" class="cls-8" d="M164.21,145.81,166.34,163l-1.7.75a130.72,130.72,0,0,1-16.1,5.77A107.52,107.52,0,0,0,153,150.74q4.93-1.86,9.68-4.16Z"/><path id="Path-9" data-name="Path" class="cls-11" d="M128.1,64.2h.13a128.15,128.15,0,0,1,46.08,107.05l-17.65,10.18a112.87,112.87,0,0,0-13.56-74.56,112,112,0,0,0-29.58-33.16s-.1-.08-.08-.09A93.6,93.6,0,0,1,126.5,65l1.6-.81h0Z"/><path id="Path-10" data-name="Path" class="cls-12" d="M128.23,64.2a128.15,128.15,0,0,1,46.08,107.05l-11.84,6.83q9.72-70.5-37.55-112.22c.52-.29,1-.57,1.58-.85l1.6-.81Z"/><path id="Path-11" data-name="Path" class="cls-8" d="M128.23,64.2q4.67,3.9,9,8.23a56.76,56.76,0,0,0-20.28,4q-1.68-1.38-3.41-2.68s-.1-.08-.08-.09A93.6,93.6,0,0,1,126.5,65l1.6-.81Z"/></g><path class="cls-1" d="M769.23,65.17h-8.05c-5.29,0-9.18,1.1-11.55,3.64s-3.55,6.73-3.55,12.59v56.47L710.76,66.19h0a114.37,114.37,0,0,0-16.14-1,72,72,0,0,0-13.85,1.18,2,2,0,0,0-1.61,2V179.91a2,2,0,0,0,1.68,2,72.1,72.1,0,0,0,10.83.71,73.54,73.54,0,0,0,11-.72,2,2,0,0,0,1.69-2V110l35.29,71.63a107.93,107.93,0,0,0,15.67,1,77.35,77.35,0,0,0,14.34-1.18,2,2,0,0,0,1.63-2V67.22A2.05,2.05,0,0,0,769.23,65.17Z"/><path class="cls-1" d="M310.44,65.17a2,2,0,0,1,1.8,3l-20.75,38.57A37,37,0,0,1,282,119.09q8,1.68,11.95,6.42a39.18,39.18,0,0,1,6.7,12.67l7,21q1.35,3.88,2,5.75a41.49,41.49,0,0,0,3.37,6.23l0,0a25.27,25.27,0,0,0,2.17,2.63,2.07,2.07,0,0,1,0,2.77q-5.74,6.58-16.71,6.59-6.94,0-10.4-3.55t-6-12l-6.45-19.77q-2.56-7.95-6.12-11.33t-9.69-3.38c-1.36,0-3.85.12-7.48.34v46.44a2,2,0,0,1-1.69,2,96.16,96.16,0,0,1-23.49,0,2,2,0,0,1-1.69-2v-112a2,2,0,0,1,1.69-2,94.85,94.85,0,0,1,23.49,0,2,2,0,0,1,1.69,2v42.9l4.42-.17a7.08,7.08,0,0,0,4.42-1.1,15.73,15.73,0,0,0,3.23-4.65l16.15-30.25q2.54-5.23,5.41-7.35c1.92-1.41,4.9-2.12,9-2.12Z"/><path class="cls-1" d="M403.94,113.8a106.44,106.44,0,0,1,0,19.06,2,2,0,0,1-2,1.77H366.25v24.81l49.49,0a2.05,2.05,0,0,1,2,2.09,59.27,59.27,0,0,1-.5,7.54q-2,13-17.23,13h-45q-7.27,0-11.41-4.22t-4.14-11.49V67.22a2.05,2.05,0,0,1,2-2h70.27a2,2,0,0,1,2,1.68,54.22,54.22,0,0,1,.7,9,33,33,0,0,1-1.87,10.63,2.05,2.05,0,0,1-1.94,1.37H366.25V112l35.66,0A2.05,2.05,0,0,1,403.94,113.8Z"/><path class="cls-1" d="M442.07,172.35a2,2,0,0,1-1-2,30.07,30.07,0,0,1,3.31-9.83,32.65,32.65,0,0,1,5.89-8.08,2,2,0,0,1,2.45-.25q17.36,10.2,33,10.19,7.1,0,10.39-3.21a10.64,10.64,0,0,0,3.3-7.94q0-7.95-10.65-12.51l-19.94-8.45Q457.16,125,450.9,117.65T444.64,99a31.91,31.91,0,0,1,3.13-14.2,33.5,33.5,0,0,1,8.78-11.15A41.32,41.32,0,0,1,470,66.27a53.91,53.91,0,0,1,17.24-2.62q18.3,0,36.91,9a2.12,2.12,0,0,1,1.17,2.07q-1.11,11.18-8,17.9A2.06,2.06,0,0,1,515,93q-16.45-7.68-29.15-7.68-6.76,0-10.14,3a9.11,9.11,0,0,0-3.38,6.93q0,6.58,10,10.64l20.28,8.62q12.84,5.42,19.18,13.86A31.77,31.77,0,0,1,528.13,148a35.9,35.9,0,0,1-2.88,14.53,31.21,31.21,0,0,1-8.53,11.41,40.62,40.62,0,0,1-14.11,7.52,65.18,65.18,0,0,1-19.77,2.7Q461.5,184.15,442.07,172.35Z"/><path class="cls-1" d="M655.52,178.25,619.93,67.53a2,2,0,0,0-1.57-1.39,91.33,91.33,0,0,0-14.69-1h0a91.38,91.38,0,0,0-14.7,1,2,2,0,0,0-1.57,1.39L551.81,178.25a2,2,0,0,0,1,2.46,28,28,0,0,0,11.78,2.43q8.79,0,12.34-3t6.08-11.66l3.21-11.16q2.19.16,6.59.17h21.63q4.39,0,6.59-.17l3.21,11.16q2.54,8.61,6.09,11.66t12.34,3a28,28,0,0,0,11.77-2.43A2,2,0,0,0,655.52,178.25ZM612,136.07c-1.41,0-2.39-.08-3-.08H598.26c-.56,0-1.55,0-3,.08s-2.45.09-3.13.09l2.88-10.48c2.52-8.85,8.62-32.17,8.62-32.17s6.09,23.32,8.61,32.17l2.88,10.48C614.48,136.16,613.44,136.13,612,136.07Z"/></svg>